2023-04-07 20:53:27 RemoTV.video.ffmpeg INFO - audioCommandLine : c://ffmpeg//bin//ffmpeg.exe -f dshow -ar 44100 -ac 1 -audio_buffer_size 250 -i audio="Microphone Array (Synaptics Audio)" -f mpegts -codec:a mp2  -b:a 32k -muxdelay 0.001 -nostats -headers "Authorization: Bearer eyJhbGciOiJIUzI1NiIsInR5cCI6IkpXVCJ9.eyJpZCI6InJib3QtZTJhM2MzMGMtN2JkMS00OGJmLWE5OTItMDdiZTgxOTdmMTcxIiwiaWF0IjoxNjc2NzUxNjIxLCJzdWIiOiIifQ.KYwUpV7DcWS6VIF6X3h43oJ_ZXqd_UmULlKzG4IjBQk" http://remo.tv:1567/transmit?name=rbot-e2a3c30c-7bd1-48bf-a992-07be8197f171-audio
2023-04-07 20:53:30 RemoTV.video.ffmpeg INFO - videoCommandLine : c://ffmpeg//bin//ffmpeg.exe -f dshow -thread_queue_size 5096 -framerate 25 -video_size 1280x720 -r 25 -rtbufsize 4000000 -i video="ManyCam Virtual Webcam" -stream_loop "-1" -f image2 -framerate 5 -i overlay.png -filter_complex 'overlay'  -f mpegts -codec:v mpeg1video -b:v 200k -bf 0 -muxdelay 0.001 -r 20 -nostats -threads 4 -video_size 1280x720 -headers "Authorization: Bearer eyJhbGciOiJIUzI1NiIsInR5cCI6IkpXVCJ9.eyJpZCI6InJib3QtZTJhM2MzMGMtN2JkMS00OGJmLWE5OTItMDdiZTgxOTdmMTcxIiwiaWF0IjoxNjc2NzUxNjIxLCJzdWIiOiIifQ.KYwUpV7DcWS6VIF6X3h43oJ_ZXqd_UmULlKzG4IjBQk" http://remo.tv:1567/transmit?name=rbot-e2a3c30c-7bd1-48bf-a992-07be8197f171-video
2023-04-07 20:53:30 RemoTV.video.ffmpeg ERROR - ffmpeg Video : ['No trailing CRLF found in HTTP header. Adding it.\r\n[dshow @ 000002465986f5c0', 'real-time buffer [ManyCam Virtual Webcam', '[video input', 'too full or near too full (92% of size: 4000000 [rtbufsize parameter])! frame dropped!\r\nStream mapping:\r\n  Stream #0:0 (rawvideo) -> overlay\r\n  Stream #1:0 (png) -> overlay\r\n  overlay:default -> Stream #0:0 (mpeg1video)\r\nPress [q', 'to stop, [?', "for help\r\nOutput #0, mpegts, to 'http://remo.tv:1567/transmit?name=rbot-e2a3c30c-7bd1-48bf-a992-07be8197f171-video':\r\n  Metadata:\r\n    encoder         : Lavf60.2.100\r\n  Stream #0:0: Video: mpeg1video, yuv420p(tv, progressive), 1280x720, q=2-31, 200 kb/s, 23.98 fps, 90k tbn\r\n    Metadata:\r\n      encoder         : Lavc60.2.100 mpeg1video\r\n    Side data:\r\n      cpb: bitrate max/min/avg: 0/0/200000 buffer size: 0 vbv_delay: N/A\r\n[image2 @ 000002465987edc0", 'Thread message queue blocking; consider raising the thread_queue_size option (current value: 8)\r\n[dshow @ 000002465986f5c0', 'real-time buffer [ManyCam Virtual Webcam', '[video input', 'too full or near too full (92% of size: 4000000 [rtbufsize parameter])! frame dropped!\r\n    Last message repeated 4 times\r\n[png @ 0000024659888240', 'chunk too big\r\nError while decoding stream #1:0: Invalid data found when processing input\r\n[dshow @ 000002465986f5c0', 'real-time buffer [ManyCam Virtual Webcam', '[video input', 'too full or near too full (92% of size: 4000000 [rtbufsize parameter])! frame dropped!\r\n    Last message repeated 2 times\r\n[png @ 0000024659888240', 'chunk too big\r\nError while decoding stream #1:0: Invalid data found when processing input\r\n[png @ 0000024659888240', 'chunk too big\r\nError while decoding stream #1:0: Invalid data found when processing input\r\n[png @ 0000024659888240', 'chunk too big\r\nError while decoding stream #1:0: Invalid data found when processing input\r\n[dshow @ 000002465986f5c0', 'real-time buffer [ManyCam Virtual Webcam', '[video input', 'too full or near too full (92% of size: 4000000 [rtbufsize parameter])! frame dropped!\r\n    Last message repeated 2 times\r\n[png @ 0000024659888240', 'chunk too big\r\nError while decoding stream #1:0: Invalid data found when processing input\r\n[dshow @ 000002465986f5c0', '']
2023-04-07 20:53:40 RemoTV.networking ERROR - WebSocket ERROR: 'd'
2023-04-07 20:53:55 RemoTV.networking ERROR - WebSocket ERROR: 'd'
2023-04-07 20:54:10 RemoTV.networking ERROR - WebSocket ERROR: 'd'
2023-04-07 20:54:25 RemoTV.networking ERROR - WebSocket ERROR: 'd'
2023-04-07 20:54:26 RemoTV INFO - chat message received: {'message': '.cam ur', 'sender': 'Religue', 'sender_id': 'user-8ff8f9c9-b2a9-440a-8741-e8a510f935f3', 'chat_id': 'chat-f6fe67bf-af64-47b1-a00a-103f0f0525a5', 'server_id': 'serv-67b56601-6a37-47fe-9fa9-6d47a3e1bfa1', 'id': 'mesg-e50872ac-35ee-4e7c-ae74-8f850549c224', 'time_stamp': 1680926066897, 'broadcast': '', 'channel_id': 'rbot-e2a3c30c-7bd1-48bf-a992-07be8197f171', 'display_message': True, 'badges': [], 'type': ''}
2023-04-07 20:54:40 RemoTV.networking ERROR - WebSocket ERROR: 'd'
2023-04-07 20:54:55 RemoTV.networking ERROR - WebSocket ERROR: 'd'
2023-04-07 20:55:10 RemoTV.networking ERROR - WebSocket ERROR: 'd'
2023-04-07 20:55:25 RemoTV.networking ERROR - WebSocket ERROR: 'd'
2023-04-07 20:55:41 RemoTV.networking ERROR - WebSocket ERROR: 'd'
2023-04-07 20:55:56 RemoTV.networking ERROR - WebSocket ERROR: 'd'
2023-04-07 20:56:03 RemoTV INFO - chat message received: {'message': '.cam ur', 'sender': 'RoboBobo', 'sender_id': 'user-cda849c6-2477-4755-a0d5-766608e0e8a4', 'chat_id': 'chat-f6fe67bf-af64-47b1-a00a-103f0f0525a5', 'server_id': 'serv-67b56601-6a37-47fe-9fa9-6d47a3e1bfa1', 'id': 'mesg-ba6e192f-a9e6-4452-85c4-2b4490dc80b4', 'time_stamp': 1680926163808, 'broadcast': '', 'channel_id': 'rbot-e2a3c30c-7bd1-48bf-a992-07be8197f171', 'display_message': True, 'badges': ['patreon100', 'owner'], 'type': ''}
2023-04-07 20:56:11 RemoTV.networking ERROR - WebSocket ERROR: 'd'
2023-04-07 20:56:26 RemoTV.networking ERROR - WebSocket ERROR: 'd'
2023-04-07 20:56:41 RemoTV.networking ERROR - WebSocket ERROR: 'd'
2023-04-07 20:56:56 RemoTV.networking ERROR - WebSocket ERROR: 'd'
2023-04-07 20:57:11 RemoTV.networking ERROR - WebSocket ERROR: 'd'
2023-04-07 20:57:26 RemoTV.networking ERROR - WebSocket ERROR: 'd'
2023-04-07 20:57:41 RemoTV.networking ERROR - WebSocket ERROR: 'd'
2023-04-07 20:57:56 RemoTV.networking ERROR - WebSocket ERROR: 'd'
2023-04-07 20:58:12 RemoTV.networking ERROR - WebSocket ERROR: 'd'
2023-04-07 20:58:27 RemoTV.networking ERROR - WebSocket ERROR: 'd'
2023-04-07 20:58:42 RemoTV.networking ERROR - WebSocket ERROR: 'd'
2023-04-07 20:58:57 RemoTV.networking ERROR - WebSocket ERROR: 'd'
2023-04-07 20:59:12 RemoTV.networking ERROR - WebSocket ERROR: 'd'
2023-04-07 20:59:27 RemoTV.networking ERROR - WebSocket ERROR: 'd'
2023-04-07 20:59:42 RemoTV.networking ERROR - WebSocket ERROR: 'd'
2023-04-07 20:59:57 RemoTV.networking ERROR - WebSocket ERROR: 'd'
2023-04-07 21:00:02 RemoTV.video.ffmpeg ERROR - ffmpeg Video : ['No trailing CRLF found in HTTP header. Adding it.\r\nStream mapping:\r\n  Stream #0:0 (rawvideo) -> overlay\r\n  Stream #1:0 (png) -> overlay\r\n  overlay:default -> Stream #0:0 (mpeg1video)\r\nPress [q', 'to stop, [?', 'for help\r\n[image2 @ 000001f00610ef40', "Thread message queue blocking; consider raising the thread_queue_size option (current value: 8)\r\nOutput #0, mpegts, to 'http://remo.tv:1567/transmit?name=rbot-e2a3c30c-7bd1-48bf-a992-07be8197f171-video':\r\n  Metadata:\r\n    encoder         : Lavf60.2.100\r\n  Stream #0:0: Video: mpeg1video, yuv420p(tv, progressive), 1280x720, q=2-31, 200 kb/s, 23.98 fps, 90k tbn\r\n    Metadata:\r\n      encoder         : Lavc60.2.100 mpeg1video\r\n    Side data:\r\n      cpb: bitrate max/min/avg: 0/0/200000 buffer size: 0 vbv_delay: N/A\r\n[image2 @ 000001f00610ef40", 'Could not open file : overlay.png\r\n    Last message repeated 2 times\r\n[dshow @ 000001f0060ff5c0', 'real-time buffer [ManyCam Virtual Webcam', '[video input', 'too full or near too full (92% of size: 4000000 [rtbufsize parameter])! frame dropped!\r\n    Last message repeated 1 times\r\n[png @ 000001f006143000', 'chunk too big\r\nError while decoding stream #1:0: Invalid data found when processing input\r\n']
2023-04-07 21:00:02 RemoTV.video.ffmpeg INFO - videoCommandLine : c://ffmpeg//bin//ffmpeg.exe -f dshow -thread_queue_size 5096 -framerate 25 -video_size 1280x720 -r 25 -rtbufsize 4000000 -i video="ManyCam Virtual Webcam" -stream_loop "-1" -f image2 -framerate 5 -i overlay.png -filter_complex 'overlay'  -f mpegts -codec:v mpeg1video -b:v 200k -bf 0 -muxdelay 0.001 -r 20 -nostats -threads 4 -video_size 1280x720 -headers "Authorization: Bearer eyJhbGciOiJIUzI1NiIsInR5cCI6IkpXVCJ9.eyJpZCI6InJib3QtZTJhM2MzMGMtN2JkMS00OGJmLWE5OTItMDdiZTgxOTdmMTcxIiwiaWF0IjoxNjc2NzUxNjIxLCJzdWIiOiIifQ.KYwUpV7DcWS6VIF6X3h43oJ_ZXqd_UmULlKzG4IjBQk" http://remo.tv:1567/transmit?name=rbot-e2a3c30c-7bd1-48bf-a992-07be8197f171-video
2023-04-07 21:00:12 RemoTV.networking ERROR - WebSocket ERROR: 'd'
2023-04-07 21:00:27 RemoTV.networking ERROR - WebSocket ERROR: 'd'
2023-04-07 21:00:43 RemoTV.networking ERROR - WebSocket ERROR: 'd'
2023-04-07 21:00:58 RemoTV.networking ERROR - WebSocket ERROR: 'd'
2023-04-07 21:01:13 RemoTV.networking ERROR - WebSocket ERROR: 'd'
2023-04-07 21:01:28 RemoTV.networking ERROR - WebSocket ERROR: 'd'
2023-04-07 21:01:43 RemoTV.networking ERROR - WebSocket ERROR: 'd'
2023-04-07 21:01:58 RemoTV.networking ERROR - WebSocket ERROR: 'd'
2023-04-07 21:02:13 RemoTV.networking ERROR - WebSocket ERROR: 'd'
2023-04-07 21:02:28 RemoTV.networking ERROR - WebSocket ERROR: 'd'
2023-04-07 21:02:43 RemoTV.networking ERROR - WebSocket ERROR: 'd'
2023-04-07 21:02:59 RemoTV.networking ERROR - WebSocket ERROR: 'd'
2023-04-07 21:03:14 RemoTV.networking ERROR - WebSocket ERROR: 'd'
2023-04-07 21:03:29 RemoTV.networking ERROR - WebSocket ERROR: 'd'
2023-04-07 21:03:44 RemoTV.networking ERROR - WebSocket ERROR: 'd'
2023-04-07 21:03:59 RemoTV.networking ERROR - WebSocket ERROR: 'd'
2023-04-07 21:04:14 RemoTV.networking ERROR - WebSocket ERROR: 'd'
2023-04-07 21:04:19 RemoTV.networking INFO - Sending Message : 21:04:19: stopping audio.
2023-04-07 21:04:20 RemoTV.video.ffmpeg ERROR - ffmpeg Audio : ['No trailing CRLF found in HTTP header. Adding it.\r\nStream mapping:\r\n  Stream #0:0 -> #0:0 (pcm_s16le (native) -> mp2 (native))\r\nPress [q', 'to stop, [?', "for help\r\nOutput #0, mpegts, to 'http://remo.tv:1567/transmit?name=rbot-e2a3c30c-7bd1-48bf-a992-07be8197f171-audio':\r\n  Metadata:\r\n    encoder         : Lavf60.2.100\r\n  Stream #0:0: Audio: mp2, 44100 Hz, stereo, s16, 32 kb/s\r\n    Metadata:\r\n      encoder         : Lavc60.2.100 mp2\r\n"]
2023-04-07 21:04:29 RemoTV.networking ERROR - WebSocket ERROR: 'd'
2023-04-07 21:04:44 RemoTV.networking ERROR - WebSocket ERROR: 'd'
2023-04-07 21:04:59 RemoTV.networking ERROR - WebSocket ERROR: 'd'
2023-04-07 21:05:15 RemoTV.networking ERROR - WebSocket ERROR: 'd'
2023-04-07 21:05:30 RemoTV.networking ERROR - WebSocket ERROR: 'd'
2023-04-07 21:05:45 RemoTV.networking ERROR - WebSocket ERROR: 'd'
2023-04-07 21:06:00 RemoTV.networking ERROR - WebSocket ERROR: 'd'
2023-04-07 21:06:07 RemoTV.networking INFO - Sending Message : 21:06:07: Restarting audio...
2023-04-07 21:06:07 RemoTV.video.ffmpeg INFO - audioCommandLine : c://ffmpeg//bin//ffmpeg.exe -f dshow -ar 44100 -ac 1 -audio_buffer_size 250 -i audio="Microphone Array (Synaptics Audio)" -f mpegts -codec:a mp2  -b:a 32k -muxdelay 0.001 -nostats -headers "Authorization: Bearer eyJhbGciOiJIUzI1NiIsInR5cCI6IkpXVCJ9.eyJpZCI6InJib3QtZTJhM2MzMGMtN2JkMS00OGJmLWE5OTItMDdiZTgxOTdmMTcxIiwiaWF0IjoxNjc2NzUxNjIxLCJzdWIiOiIifQ.KYwUpV7DcWS6VIF6X3h43oJ_ZXqd_UmULlKzG4IjBQk" http://remo.tv:1567/transmit?name=rbot-e2a3c30c-7bd1-48bf-a992-07be8197f171-audio
2023-04-07 21:06:15 RemoTV.networking ERROR - WebSocket ERROR: 'd'
2023-04-07 21:06:30 RemoTV.networking ERROR - WebSocket ERROR: 'd'
2023-04-07 21:06:45 RemoTV.networking ERROR - WebSocket ERROR: 'd'
2023-04-07 21:07:00 RemoTV.networking ERROR - WebSocket ERROR: 'd'
2023-04-07 21:07:15 RemoTV.networking ERROR - WebSocket ERROR: 'd'
2023-04-07 21:07:31 RemoTV.networking ERROR - WebSocket ERROR: 'd'
2023-04-07 21:07:46 RemoTV.networking ERROR - WebSocket ERROR: 'd'
2023-04-07 21:08:01 RemoTV.networking ERROR - WebSocket ERROR: 'd'
2023-04-07 21:08:16 RemoTV.networking ERROR - WebSocket ERROR: 'd'
2023-04-07 21:08:31 RemoTV.networking ERROR - WebSocket ERROR: 'd'
2023-04-07 21:08:41 RemoTV INFO - chat message received: {'message': 'oop', 'sender': 'Religue', 'sender_id': 'user-8ff8f9c9-b2a9-440a-8741-e8a510f935f3', 'chat_id': 'chat-f6fe67bf-af64-47b1-a00a-103f0f0525a5', 'server_id': 'serv-67b56601-6a37-47fe-9fa9-6d47a3e1bfa1', 'id': 'mesg-79199c67-b252-4363-adee-f6e937fc5937', 'time_stamp': 1680926921923, 'broadcast': '', 'channel_id': 'rbot-e2a3c30c-7bd1-48bf-a992-07be8197f171', 'display_message': True, 'badges': [], 'type': ''}
2023-04-07 21:08:46 RemoTV.networking ERROR - WebSocket ERROR: 'd'
2023-04-07 21:08:52 RemoTV.networking INFO - Sending Message : Battery voltage: 3.62 Full at: 4.5
2023-04-07 21:09:01 RemoTV.networking ERROR - WebSocket ERROR: 'd'
2023-04-07 21:09:16 RemoTV.networking ERROR - WebSocket ERROR: 'd'
2023-04-07 21:09:31 RemoTV.networking ERROR - WebSocket ERROR: 'd'
2023-04-07 21:09:46 RemoTV.networking ERROR - WebSocket ERROR: 'd'
2023-04-07 21:09:50 RemoTV.networking INFO - Sending Message : Battery voltage: 3.62 Full at: 4.5
2023-04-07 21:10:02 RemoTV.networking ERROR - WebSocket ERROR: 'd'
2023-04-07 21:10:17 RemoTV.networking ERROR - WebSocket ERROR: 'd'
2023-04-07 21:10:32 RemoTV.networking ERROR - WebSocket ERROR: 'd'
2023-04-07 21:10:47 RemoTV.networking ERROR - WebSocket ERROR: 'd'
2023-04-07 21:11:02 RemoTV.networking ERROR - WebSocket ERROR: 'd'
2023-04-07 21:11:17 RemoTV.networking ERROR - WebSocket ERROR: 'd'
2023-04-07 21:11:32 RemoTV.networking ERROR - WebSocket ERROR: 'd'
2023-04-07 21:11:47 RemoTV.networking ERROR - WebSocket ERROR: 'd'
2023-04-07 21:12:02 RemoTV.networking ERROR - WebSocket ERROR: 'd'
2023-04-07 21:12:17 RemoTV.networking ERROR - WebSocket ERROR: 'd'
2023-04-07 21:12:33 RemoTV.networking ERROR - WebSocket ERROR: 'd'
2023-04-07 21:12:35 RemoTV CRITICAL - Unhandled exception of type : <class 'KeyboardInterrupt'>
Traceback (most recent call last):
  File "controller.py", line 408, in <module>
    time.sleep(1)
KeyboardInterrupt
2023-04-07 21:12:35 RemoTV.video.ffmpeg ERROR - ffmpeg Video : ['No trailing CRLF found in HTTP header. Adding it.\r\nStream mapping:\r\n  Stream #0:0 (rawvideo) -> overlay\r\n  Stream #1:0 (png) -> overlay\r\n  overlay:default -> Stream #0:0 (mpeg1video)\r\nPress [q', 'to stop, [?', 'for help\r\n[image2 @ 000001e982cdf200', "Thread message queue blocking; consider raising the thread_queue_size option (current value: 8)\r\nOutput #0, mpegts, to 'http://remo.tv:1567/transmit?name=rbot-e2a3c30c-7bd1-48bf-a992-07be8197f171-video':\r\n  Metadata:\r\n    encoder         : Lavf60.2.100\r\n  Stream #0:0: Video: mpeg1video, yuv420p(tv, progressive), 1280x720, q=2-31, 200 kb/s, 23.98 fps, 90k tbn\r\n    Metadata:\r\n      encoder         : Lavc60.2.100 mpeg1video\r\n    Side data:\r\n      cpb: bitrate max/min/avg: 0/0/200000 buffer size: 0 vbv_delay: N/A\r\n[dshow @ 000001e982ccf5c0", 'real-time buffer [ManyCam Virtual Webcam', '[video input', 'too full or near too full (92% of size: 4000000 [rtbufsize parameter])! frame dropped!\r\n    Last message repeated 4 times\r\n[png @ 000001e982d12180', 'chunk too big\r\nError while decoding stream #1:0: Invalid data found when processing input\r\n[dshow @ 000001e982ccf5c0', 'real-time buffer [ManyCam Virtual Webcam', '[video input', 'too full or near too full (92% of size: 4000000 [rtbufsize parameter])! frame dropped!\r\n[image2 @ 000001e982cdf200', 'Could not open file : overlay.png\r\n[dshow @ 000001e982ccf5c0', 'real-time buffer [ManyCam Virtual Webcam', '[video input', 'too full or near too full (92% of size: 4000000 [rtbufsize parameter])! frame dropped!\r\n    Last message repeated 1 times\r\nframe=18291 fps= 24 q=31.0 Lsize=   43510kB time=00:12:42.80 bitrate= 467.3kbits/s dup=0 drop=779 speed=1.01x    \r\nvideo:37826kB audio:0kB subtitle:0kB other streams:0kB global headers:0kB muxing overhead: 15.025643%\r\nExiting normally, received signal 2.\r\n']
2023-04-07 21:12:35 RemoTV.video.ffmpeg ERROR - ffmpeg Audio : ['No trailing CRLF found in HTTP header. Adding it.\r\nStream mapping:\r\n  Stream #0:0 -> #0:0 (pcm_s16le (native) -> mp2 (native))\r\nPress [q', 'to stop, [?', "for help\r\nOutput #0, mpegts, to 'http://remo.tv:1567/transmit?name=rbot-e2a3c30c-7bd1-48bf-a992-07be8197f171-audio':\r\n  Metadata:\r\n    encoder         : Lavf60.2.100\r\n  Stream #0:0: Audio: mp2, 44100 Hz, stereo, s16, 32 kb/s\r\n    Metadata:\r\n      encoder         : Lavc60.2.100 mp2\r\nsize=    4196kB time=00:06:25.21 bitrate=  89.2kbits/s speed=   1x    \r\nvideo:0kB audio:1505kB subtitle:0kB other streams:0kB global headers:0kB muxing overhead: 178.819916%\r\n"]
2023-04-07 21:12:43 RemoTV CRITICAL - RemoTV Controller Starting up
2023-04-07 21:12:43 RemoTV INFO - Loading tts
2023-04-07 21:12:43 RemoTV.tts INFO - Unable to find tts/tts_custom.py
2023-04-07 21:12:48 RemoTV CRITICAL - Unhandled exception of type : <class 'cozmo.exceptions.NoDevicesFound'>
Traceback (most recent call last):
  File "C:\Users\admin.todd\AppData\Roaming\Python\Python37\site-packages\cozmo\run.py", line 605, in connect
    return _connect_sync(f, conn_factory, connector)
  File "C:\Users\admin.todd\AppData\Roaming\Python\Python37\site-packages\cozmo\run.py", line 527, in _connect_sync
    coz_conn = lt.start()
  File "C:\Users\admin.todd\AppData\Roaming\Python\Python37\site-packages\cozmo\run.py", line 468, in start
    raise coz_conn
  File "C:\Users\admin.todd\AppData\Roaming\Python\Python37\site-packages\cozmo\run.py", line 450, in run_loop
    coz_conn = connect_on_loop(self.loop, self.conn_factory, self.connector)
  File "C:\Users\admin.todd\AppData\Roaming\Python\Python37\site-packages\cozmo\run.py", line 569, in connect_on_loop
    transport, coz_conn = loop.run_until_complete(connect())
  File "C:\Program Files\Python37\lib\asyncio\base_events.py", line 587, in run_until_complete
    return future.result()
  File "C:\Users\admin.todd\AppData\Roaming\Python\Python37\site-packages\cozmo\run.py", line 567, in connect
    return await connector.connect(loop, factory, conn_check)
  File "C:\Users\admin.todd\AppData\Roaming\Python\Python37\site-packages\cozmo\run.py", line 395, in connect
    raise exceptions.NoDevicesFound('No devices connected running Cozmo in SDK mode')
cozmo.exceptions.NoDevicesFound: No devices connected running Cozmo in SDK mode
2023-04-07 21:17:43 RemoTV CRITICAL - RemoTV Controller Starting up
2023-04-07 21:17:43 RemoTV INFO - Loading tts
2023-04-07 21:17:43 RemoTV.tts INFO - Unable to find tts/tts_custom.py
2023-04-07 21:17:47 RemoTV INFO - Loading networking
2023-04-07 21:17:47 RemoTV.networking INFO - configuring web socket wss://remo.tv/
2023-04-07 21:17:47 RemoTV.networking INFO - staring websocket listen process
2023-04-07 21:17:47 RemoTV.networking INFO - websocket connected
2023-04-07 21:17:47 RemoTV.networking INFO - internet connected
2023-04-07 21:17:47 RemoTV INFO - Loading hardware module
2023-04-07 21:17:47 RemoTV WARNING - Unable to find hardware/hardware_custom.py
2023-04-07 21:17:47 RemoTV INFO - Loading video module
2023-04-07 21:17:47 RemoTV WARNING - Unable to find video/video_custom.py
2023-04-07 21:17:47 RemoTV INFO - Loading extended chat commands
2023-04-07 21:17:47 RemoTV.extended_command INFO - Moderators : 
2023-04-07 21:17:47 RemoTV WARNING - Unable to find chat_custom.py
2023-04-07 21:17:47 RemoTV CRITICAL - RemoTV Controller Started
2023-04-07 21:17:47 RemoTV.networking INFO - channel CozBot found with id : rbot-e2a3c30c-7bd1-48bf-a992-07be8197f171
2023-04-07 21:17:48 RemoTV ERROR - Unknown event type
2023-04-07 21:17:48 RemoTV.video.ffmpeg INFO - videoCommandLine : c://ffmpeg//bin//ffmpeg.exe -f dshow -thread_queue_size 5096 -framerate 25 -video_size 1280x720 -r 25 -rtbufsize 4000000 -i video="ManyCam Virtual Webcam" -stream_loop "-1" -f image2 -framerate 5 -i overlay.png -filter_complex 'overlay'  -f mpegts -codec:v mpeg1video -b:v 200k -bf 0 -muxdelay 0.001 -r 20 -nostats -threads 4 -video_size 1280x720 -headers "Authorization: Bearer eyJhbGciOiJIUzI1NiIsInR5cCI6IkpXVCJ9.eyJpZCI6InJib3QtZTJhM2MzMGMtN2JkMS00OGJmLWE5OTItMDdiZTgxOTdmMTcxIiwiaWF0IjoxNjc2NzUxNjIxLCJzdWIiOiIifQ.KYwUpV7DcWS6VIF6X3h43oJ_ZXqd_UmULlKzG4IjBQk" http://remo.tv:1567/transmit?name=rbot-e2a3c30c-7bd1-48bf-a992-07be8197f171-video
2023-04-07 21:17:50 RemoTV.networking ERROR - WebSocket ERROR: 'd'
2023-04-07 21:18:05 RemoTV.networking ERROR - WebSocket ERROR: 'd'
2023-04-07 21:18:20 RemoTV.networking ERROR - WebSocket ERROR: 'd'
2023-04-07 21:18:35 RemoTV.networking ERROR - WebSocket ERROR: 'd'
2023-04-07 21:18:50 RemoTV.networking ERROR - WebSocket ERROR: 'd'
2023-04-07 21:19:05 RemoTV.networking ERROR - WebSocket ERROR: 'd'
2023-04-07 21:19:20 RemoTV.networking ERROR - WebSocket ERROR: 'd'
2023-04-07 21:19:35 RemoTV.networking ERROR - WebSocket ERROR: 'd'
2023-04-07 21:19:48 RemoTV.networking INFO - missing internet connection?
2023-04-07 21:19:51 RemoTV.networking ERROR - WebSocket ERROR: 'd'
2023-04-07 21:20:06 RemoTV.networking ERROR - WebSocket ERROR: 'd'
2023-04-07 21:20:21 RemoTV.networking ERROR - WebSocket ERROR: 'd'
2023-04-07 21:20:36 RemoTV.networking ERROR - WebSocket ERROR: 'd'
2023-04-07 21:20:51 RemoTV.networking ERROR - WebSocket ERROR: 'd'
2023-04-07 21:21:06 RemoTV.networking ERROR - WebSocket ERROR: 'd'
2023-04-07 21:21:21 RemoTV.networking ERROR - WebSocket ERROR: 'd'
2023-04-07 21:21:36 RemoTV.networking ERROR - WebSocket ERROR: 'd'
2023-04-07 21:21:47 RemoTV.networking INFO - Sending Message : 21:21:47: Restarting audio...
2023-04-07 21:21:47 RemoTV.video.ffmpeg INFO - audioCommandLine : c://ffmpeg//bin//ffmpeg.exe -f dshow -ar 44100 -ac 1 -audio_buffer_size 250 -i audio="Microphone Array (Synaptics Audio)" -f mpegts -codec:a mp2  -b:a 32k -muxdelay 0.001 -nostats -headers "Authorization: Bearer eyJhbGciOiJIUzI1NiIsInR5cCI6IkpXVCJ9.eyJpZCI6InJib3QtZTJhM2MzMGMtN2JkMS00OGJmLWE5OTItMDdiZTgxOTdmMTcxIiwiaWF0IjoxNjc2NzUxNjIxLCJzdWIiOiIifQ.KYwUpV7DcWS6VIF6X3h43oJ_ZXqd_UmULlKzG4IjBQk" http://remo.tv:1567/transmit?name=rbot-e2a3c30c-7bd1-48bf-a992-07be8197f171-audio
2023-04-07 21:21:49 RemoTV.networking INFO - internet connected
2023-04-07 21:21:51 RemoTV.networking ERROR - WebSocket ERROR: 'd'
2023-04-07 21:22:06 RemoTV.networking ERROR - WebSocket ERROR: 'd'
2023-04-07 21:22:22 RemoTV.networking ERROR - WebSocket ERROR: 'd'
2023-04-07 21:22:37 RemoTV.networking ERROR - WebSocket ERROR: 'd'
2023-04-07 21:22:52 RemoTV.networking ERROR - WebSocket ERROR: 'd'
2023-04-07 21:23:07 RemoTV.networking ERROR - WebSocket ERROR: 'd'
2023-04-07 21:23:22 RemoTV.networking ERROR - WebSocket ERROR: 'd'
2023-04-07 21:23:37 RemoTV.networking ERROR - WebSocket ERROR: 'd'
2023-04-07 21:23:48 RemoTV.networking INFO - Sending Message : 21:23:48: stopping audio.
2023-04-07 21:23:48 RemoTV.video.ffmpeg ERROR - ffmpeg Audio : ['No trailing CRLF found in HTTP header. Adding it.\r\nStream mapping:\r\n  Stream #0:0 -> #0:0 (pcm_s16le (native) -> mp2 (native))\r\nPress [q', 'to stop, [?', "for help\r\nOutput #0, mpegts, to 'http://remo.tv:1567/transmit?name=rbot-e2a3c30c-7bd1-48bf-a992-07be8197f171-audio':\r\n  Metadata:\r\n    encoder         : Lavf60.2.100\r\n  Stream #0:0: Audio: mp2, 44100 Hz, stereo, s16, 32 kb/s\r\n    Metadata:\r\n      encoder         : Lavc60.2.100 mp2\r\n"]
2023-04-07 21:23:52 RemoTV.networking ERROR - WebSocket ERROR: 'd'
2023-04-07 21:24:07 RemoTV.networking ERROR - WebSocket ERROR: 'd'
2023-04-07 21:24:22 RemoTV.networking ERROR - WebSocket ERROR: 'd'
2023-04-07 21:24:37 RemoTV.networking ERROR - WebSocket ERROR: 'd'
2023-04-07 21:24:53 RemoTV.networking ERROR - WebSocket ERROR: 'd'
2023-04-07 21:25:08 RemoTV.networking ERROR - WebSocket ERROR: 'd'
2023-04-07 21:25:23 RemoTV.networking ERROR - WebSocket ERROR: 'd'
2023-04-07 21:25:38 RemoTV.networking ERROR - WebSocket ERROR: 'd'
2023-04-07 21:25:53 RemoTV.networking ERROR - WebSocket ERROR: 'd'
2023-04-07 21:26:08 RemoTV.networking ERROR - WebSocket ERROR: 'd'
2023-04-07 21:26:23 RemoTV.networking ERROR - WebSocket ERROR: 'd'
2023-04-07 21:26:38 RemoTV.networking ERROR - WebSocket ERROR: 'd'
2023-04-07 21:26:53 RemoTV.networking ERROR - WebSocket ERROR: 'd'
2023-04-07 21:27:09 RemoTV.networking ERROR - WebSocket ERROR: 'd'
2023-04-07 21:27:24 RemoTV.networking ERROR - WebSocket ERROR: 'd'
2023-04-07 21:27:39 RemoTV.networking ERROR - WebSocket ERROR: 'd'
2023-04-07 21:27:54 RemoTV.networking ERROR - WebSocket ERROR: 'd'
2023-04-07 21:28:09 RemoTV.networking ERROR - WebSocket ERROR: 'd'
2023-04-07 21:28:24 RemoTV.networking ERROR - WebSocket ERROR: 'd'
2023-04-07 21:28:39 RemoTV.networking ERROR - WebSocket ERROR: 'd'
2023-04-07 21:28:54 RemoTV.networking ERROR - WebSocket ERROR: 'd'
2023-04-07 21:29:09 RemoTV.networking ERROR - WebSocket ERROR: 'd'
2023-04-07 21:29:24 RemoTV.networking ERROR - WebSocket ERROR: 'd'
2023-04-07 21:29:40 RemoTV.networking ERROR - WebSocket ERROR: 'd'
2023-04-07 21:29:55 RemoTV.networking ERROR - WebSocket ERROR: 'd'
2023-04-07 21:30:10 RemoTV.networking ERROR - WebSocket ERROR: 'd'
2023-04-07 21:30:25 RemoTV.networking ERROR - WebSocket ERROR: 'd'
2023-04-07 21:30:40 RemoTV.networking ERROR - WebSocket ERROR: 'd'
2023-04-07 21:30:55 RemoTV.networking ERROR - WebSocket ERROR: 'd'
2023-04-07 21:31:10 RemoTV.networking ERROR - WebSocket ERROR: 'd'
2023-04-07 21:31:25 RemoTV.networking ERROR - WebSocket ERROR: 'd'
2023-04-07 21:31:40 RemoTV.networking ERROR - WebSocket ERROR: 'd'
2023-04-07 21:31:55 RemoTV.networking ERROR - WebSocket ERROR: 'd'
2023-04-07 21:32:10 RemoTV.networking ERROR - WebSocket ERROR: 'd'
2023-04-07 21:32:26 RemoTV.networking ERROR - WebSocket ERROR: 'd'
2023-04-07 21:32:41 RemoTV.networking ERROR - WebSocket ERROR: 'd'
2023-04-07 21:32:56 RemoTV.networking ERROR - WebSocket ERROR: 'd'
2023-04-07 21:33:11 RemoTV.networking ERROR - WebSocket ERROR: 'd'
2023-04-07 21:33:26 RemoTV.networking ERROR - WebSocket ERROR: 'd'
2023-04-07 21:33:41 RemoTV.networking ERROR - WebSocket ERROR: 'd'
2023-04-07 21:33:56 RemoTV.networking ERROR - WebSocket ERROR: 'd'
2023-04-07 21:34:11 RemoTV.networking ERROR - WebSocket ERROR: 'd'
2023-04-07 21:34:26 RemoTV.networking ERROR - WebSocket ERROR: 'd'
2023-04-07 21:34:42 RemoTV.networking ERROR - WebSocket ERROR: 'd'
2023-04-07 21:34:57 RemoTV.networking ERROR - WebSocket ERROR: 'd'
2023-04-07 21:35:12 RemoTV.networking ERROR - WebSocket ERROR: 'd'
2023-04-07 21:35:27 RemoTV.networking ERROR - WebSocket ERROR: 'd'
2023-04-07 21:35:42 RemoTV.networking ERROR - WebSocket ERROR: 'd'
2023-04-07 21:35:57 RemoTV.networking ERROR - WebSocket ERROR: 'd'
2023-04-07 21:36:12 RemoTV.networking ERROR - WebSocket ERROR: 'd'
2023-04-07 21:36:27 RemoTV.networking ERROR - WebSocket ERROR: 'd'
2023-04-07 21:36:42 RemoTV.networking ERROR - WebSocket ERROR: 'd'
2023-04-07 21:36:57 RemoTV.networking ERROR - WebSocket ERROR: 'd'
2023-04-07 21:37:13 RemoTV.networking ERROR - WebSocket ERROR: 'd'
2023-04-07 21:37:28 RemoTV.networking ERROR - WebSocket ERROR: 'd'
2023-04-07 21:37:43 RemoTV.networking ERROR - WebSocket ERROR: 'd'
2023-04-07 21:37:58 RemoTV.networking ERROR - WebSocket ERROR: 'd'
2023-04-07 21:38:13 RemoTV.networking ERROR - WebSocket ERROR: 'd'
2023-04-07 21:38:28 RemoTV.networking ERROR - WebSocket ERROR: 'd'
2023-04-07 21:38:43 RemoTV.networking ERROR - WebSocket ERROR: 'd'
2023-04-07 21:38:58 RemoTV.networking ERROR - WebSocket ERROR: 'd'
2023-04-07 21:39:13 RemoTV.networking ERROR - WebSocket ERROR: 'd'
2023-04-07 21:39:29 RemoTV.networking ERROR - WebSocket ERROR: 'd'
2023-04-07 21:39:44 RemoTV.networking ERROR - WebSocket ERROR: 'd'
2023-04-07 21:39:59 RemoTV.networking ERROR - WebSocket ERROR: 'd'
2023-04-07 21:40:14 RemoTV.networking ERROR - WebSocket ERROR: 'd'
2023-04-07 21:40:29 RemoTV.networking ERROR - WebSocket ERROR: 'd'
2023-04-07 21:40:44 RemoTV.networking ERROR - WebSocket ERROR: 'd'
2023-04-07 21:40:59 RemoTV.networking ERROR - WebSocket ERROR: 'd'
2023-04-07 21:41:14 RemoTV.networking ERROR - WebSocket ERROR: 'd'
2023-04-07 21:41:29 RemoTV.networking ERROR - WebSocket ERROR: 'd'
2023-04-07 21:41:44 RemoTV.networking ERROR - WebSocket ERROR: 'd'
2023-04-07 21:41:59 RemoTV.networking ERROR - WebSocket ERROR: 'd'
2023-04-07 21:42:15 RemoTV.networking ERROR - WebSocket ERROR: 'd'
2023-04-07 21:42:30 RemoTV.networking ERROR - WebSocket ERROR: 'd'
2023-04-07 21:42:45 RemoTV.networking ERROR - WebSocket ERROR: 'd'
2023-04-07 21:43:00 RemoTV.networking ERROR - WebSocket ERROR: 'd'
2023-04-07 21:43:15 RemoTV.networking ERROR - WebSocket ERROR: 'd'
2023-04-07 21:43:30 RemoTV.networking ERROR - WebSocket ERROR: 'd'
2023-04-07 21:43:45 RemoTV.networking ERROR - WebSocket ERROR: 'd'
2023-04-07 21:44:00 RemoTV.networking ERROR - WebSocket ERROR: 'd'
2023-04-07 21:44:15 RemoTV.networking ERROR - WebSocket ERROR: 'd'
2023-04-07 21:44:31 RemoTV.networking ERROR - WebSocket ERROR: 'd'
2023-04-07 21:44:46 RemoTV.networking ERROR - WebSocket ERROR: 'd'
2023-04-07 21:45:01 RemoTV.networking ERROR - WebSocket ERROR: 'd'
2023-04-07 21:45:16 RemoTV.networking ERROR - WebSocket ERROR: 'd'
2023-04-07 21:45:31 RemoTV.networking ERROR - WebSocket ERROR: 'd'
2023-04-07 21:45:46 RemoTV.networking ERROR - WebSocket ERROR: 'd'
2023-04-07 21:46:01 RemoTV.networking ERROR - WebSocket ERROR: 'd'
2023-04-07 21:46:16 RemoTV.networking ERROR - WebSocket ERROR: 'd'
2023-04-07 21:46:31 RemoTV.networking ERROR - WebSocket ERROR: 'd'
2023-04-07 21:46:47 RemoTV.networking ERROR - WebSocket ERROR: 'd'
2023-04-07 21:47:02 RemoTV.networking ERROR - WebSocket ERROR: 'd'
2023-04-07 21:47:17 RemoTV.networking ERROR - WebSocket ERROR: 'd'
2023-04-07 21:47:32 RemoTV.networking ERROR - WebSocket ERROR: 'd'
2023-04-07 21:47:47 RemoTV.networking ERROR - WebSocket ERROR: 'd'
2023-04-07 21:48:02 RemoTV.networking ERROR - WebSocket ERROR: 'd'
2023-04-07 21:48:17 RemoTV.networking ERROR - WebSocket ERROR: 'd'
2023-04-07 21:48:32 RemoTV.networking ERROR - WebSocket ERROR: 'd'
2023-04-07 21:48:47 RemoTV.networking ERROR - WebSocket ERROR: 'd'
2023-04-07 21:49:03 RemoTV.networking ERROR - WebSocket ERROR: 'd'
2023-04-07 21:49:18 RemoTV.networking ERROR - WebSocket ERROR: 'd'
2023-04-07 21:49:33 RemoTV.networking ERROR - WebSocket ERROR: 'd'
2023-04-07 21:49:48 RemoTV.networking ERROR - WebSocket ERROR: 'd'
2023-04-07 21:50:03 RemoTV.networking ERROR - WebSocket ERROR: 'd'
2023-04-07 21:50:18 RemoTV.networking ERROR - WebSocket ERROR: 'd'
2023-04-07 21:50:33 RemoTV.networking ERROR - WebSocket ERROR: 'd'
2023-04-07 21:50:48 RemoTV.networking ERROR - WebSocket ERROR: 'd'
2023-04-07 21:51:03 RemoTV.networking ERROR - WebSocket ERROR: 'd'
2023-04-07 21:51:19 RemoTV.networking ERROR - WebSocket ERROR: 'd'
2023-04-07 21:51:34 RemoTV.networking ERROR - WebSocket ERROR: 'd'
2023-04-07 21:51:49 RemoTV.networking ERROR - WebSocket ERROR: 'd'
2023-04-07 21:52:04 RemoTV.networking ERROR - WebSocket ERROR: 'd'
2023-04-07 21:52:19 RemoTV.networking ERROR - WebSocket ERROR: 'd'
2023-04-07 21:52:34 RemoTV.networking ERROR - WebSocket ERROR: 'd'
2023-04-07 21:52:49 RemoTV.networking ERROR - WebSocket ERROR: 'd'
2023-04-07 21:53:04 RemoTV.networking ERROR - WebSocket ERROR: 'd'
2023-04-07 21:53:19 RemoTV.networking ERROR - WebSocket ERROR: 'd'
2023-04-07 21:53:34 RemoTV.networking ERROR - WebSocket ERROR: 'd'
2023-04-07 21:53:49 RemoTV.networking ERROR - WebSocket ERROR: 'd'
2023-04-07 21:54:05 RemoTV.networking ERROR - WebSocket ERROR: 'd'
2023-04-07 21:54:20 RemoTV.networking ERROR - WebSocket ERROR: 'd'
2023-04-07 21:54:35 RemoTV.networking ERROR - WebSocket ERROR: 'd'
2023-04-07 21:54:50 RemoTV.networking ERROR - WebSocket ERROR: 'd'
2023-04-07 21:55:05 RemoTV.networking ERROR - WebSocket ERROR: 'd'
2023-04-07 21:55:20 RemoTV.networking ERROR - WebSocket ERROR: 'd'
2023-04-07 21:55:35 RemoTV.networking ERROR - WebSocket ERROR: 'd'
2023-04-07 21:55:50 RemoTV.networking ERROR - WebSocket ERROR: 'd'
2023-04-07 21:56:05 RemoTV.networking ERROR - WebSocket ERROR: 'd'
2023-04-07 21:56:20 RemoTV.networking ERROR - WebSocket ERROR: 'd'
2023-04-07 21:56:36 RemoTV.networking ERROR - WebSocket ERROR: 'd'
2023-04-07 21:56:51 RemoTV.networking ERROR - WebSocket ERROR: 'd'
2023-04-07 21:57:06 RemoTV.networking ERROR - WebSocket ERROR: 'd'
2023-04-07 21:57:21 RemoTV.networking ERROR - WebSocket ERROR: 'd'
2023-04-07 21:57:36 RemoTV.networking ERROR - WebSocket ERROR: 'd'
2023-04-07 21:57:51 RemoTV.networking ERROR - WebSocket ERROR: 'd'
2023-04-07 21:58:06 RemoTV.networking ERROR - WebSocket ERROR: 'd'
2023-04-07 21:58:21 RemoTV.networking ERROR - WebSocket ERROR: 'd'
2023-04-07 21:58:36 RemoTV.networking ERROR - WebSocket ERROR: 'd'
2023-04-07 21:58:52 RemoTV.networking ERROR - WebSocket ERROR: 'd'
2023-04-07 21:59:07 RemoTV.networking ERROR - WebSocket ERROR: 'd'
2023-04-07 21:59:22 RemoTV.networking ERROR - WebSocket ERROR: 'd'
2023-04-07 21:59:37 RemoTV.networking ERROR - WebSocket ERROR: 'd'
2023-04-07 21:59:52 RemoTV.networking ERROR - WebSocket ERROR: 'd'
2023-04-07 22:00:07 RemoTV.networking ERROR - WebSocket ERROR: 'd'
2023-04-07 22:00:22 RemoTV.networking ERROR - WebSocket ERROR: 'd'
2023-04-07 22:00:37 RemoTV.networking ERROR - WebSocket ERROR: 'd'
2023-04-07 22:00:52 RemoTV.networking ERROR - WebSocket ERROR: 'd'
2023-04-07 22:01:08 RemoTV.networking ERROR - WebSocket ERROR: 'd'
2023-04-07 22:01:23 RemoTV.networking ERROR - WebSocket ERROR: 'd'
2023-04-07 22:01:38 RemoTV.networking ERROR - WebSocket ERROR: 'd'
2023-04-07 22:01:53 RemoTV.networking ERROR - WebSocket ERROR: 'd'
2023-04-07 22:02:08 RemoTV.networking ERROR - WebSocket ERROR: 'd'
2023-04-07 22:02:24 RemoTV.networking ERROR - WebSocket ERROR: 'd'
2023-04-07 22:02:38 RemoTV.networking ERROR - WebSocket ERROR: 'd'
2023-04-07 22:02:53 RemoTV.networking ERROR - WebSocket ERROR: 'd'
2023-04-07 22:03:08 RemoTV.networking ERROR - WebSocket ERROR: 'd'
2023-04-07 22:03:24 RemoTV.networking ERROR - WebSocket ERROR: 'd'
2023-04-07 22:03:39 RemoTV.networking ERROR - WebSocket ERROR: 'd'
2023-04-07 22:03:54 RemoTV.networking ERROR - WebSocket ERROR: 'd'
2023-04-07 22:04:09 RemoTV.networking ERROR - WebSocket ERROR: 'd'
2023-04-07 22:04:24 RemoTV.networking ERROR - WebSocket ERROR: 'd'
2023-04-07 22:04:39 RemoTV.networking ERROR - WebSocket ERROR: 'd'
2023-04-07 22:04:54 RemoTV.networking ERROR - WebSocket ERROR: 'd'
2023-04-07 22:05:09 RemoTV.networking ERROR - WebSocket ERROR: 'd'
2023-04-07 22:05:24 RemoTV.networking ERROR - WebSocket ERROR: 'd'
2023-04-07 22:05:39 RemoTV.networking ERROR - WebSocket ERROR: 'd'
2023-04-07 22:05:55 RemoTV.networking ERROR - WebSocket ERROR: 'd'
2023-04-07 22:06:10 RemoTV.networking ERROR - WebSocket ERROR: 'd'
2023-04-07 22:06:25 RemoTV.networking ERROR - WebSocket ERROR: 'd'
2023-04-07 22:06:40 RemoTV.networking ERROR - WebSocket ERROR: 'd'
2023-04-07 22:06:55 RemoTV.networking ERROR - WebSocket ERROR: 'd'
2023-04-07 22:07:10 RemoTV.networking ERROR - WebSocket ERROR: 'd'
2023-04-07 22:07:25 RemoTV.networking ERROR - WebSocket ERROR: 'd'
2023-04-07 22:07:40 RemoTV.networking ERROR - WebSocket ERROR: 'd'
2023-04-07 22:07:55 RemoTV.networking ERROR - WebSocket ERROR: 'd'
2023-04-07 22:08:11 RemoTV.networking ERROR - WebSocket ERROR: 'd'
2023-04-07 22:08:26 RemoTV.networking ERROR - WebSocket ERROR: 'd'
2023-04-07 22:08:41 RemoTV.networking ERROR - WebSocket ERROR: 'd'
2023-04-07 22:08:56 RemoTV.networking ERROR - WebSocket ERROR: 'd'
2023-04-07 22:09:11 RemoTV.networking ERROR - WebSocket ERROR: 'd'
2023-04-07 22:09:27 RemoTV.networking ERROR - WebSocket ERROR: 'd'
2023-04-07 22:09:41 RemoTV.networking ERROR - WebSocket ERROR: 'd'
2023-04-07 22:09:56 RemoTV.networking ERROR - WebSocket ERROR: 'd'
2023-04-07 22:10:11 RemoTV.networking ERROR - WebSocket ERROR: 'd'
2023-04-07 22:10:27 RemoTV.networking ERROR - WebSocket ERROR: 'd'
2023-04-07 22:10:42 RemoTV.networking ERROR - WebSocket ERROR: 'd'
2023-04-07 22:10:57 RemoTV.networking ERROR - WebSocket ERROR: 'd'
2023-04-07 22:11:12 RemoTV.networking ERROR - WebSocket ERROR: 'd'
2023-04-07 22:11:27 RemoTV.networking ERROR - WebSocket ERROR: 'd'
2023-04-07 22:11:42 RemoTV.networking ERROR - WebSocket ERROR: 'd'
2023-04-07 22:11:57 RemoTV.networking ERROR - WebSocket ERROR: 'd'
2023-04-07 22:12:12 RemoTV.networking ERROR - WebSocket ERROR: 'd'
2023-04-07 22:12:27 RemoTV.networking ERROR - WebSocket ERROR: 'd'
2023-04-07 22:12:42 RemoTV.networking ERROR - WebSocket ERROR: 'd'
2023-04-07 22:12:58 RemoTV.networking ERROR - WebSocket ERROR: 'd'
2023-04-07 22:13:13 RemoTV.networking ERROR - WebSocket ERROR: 'd'
2023-04-07 22:13:28 RemoTV.networking ERROR - WebSocket ERROR: 'd'
2023-04-07 22:13:43 RemoTV.networking ERROR - WebSocket ERROR: 'd'
2023-04-07 22:13:58 RemoTV.networking ERROR - WebSocket ERROR: 'd'
2023-04-07 22:14:13 RemoTV.networking ERROR - WebSocket ERROR: 'd'
2023-04-07 22:14:28 RemoTV.networking ERROR - WebSocket ERROR: 'd'
2023-04-07 22:14:43 RemoTV.networking ERROR - WebSocket ERROR: 'd'
2023-04-07 22:14:59 RemoTV.networking ERROR - WebSocket ERROR: 'd'
2023-04-07 22:15:14 RemoTV.networking ERROR - WebSocket ERROR: 'd'
2023-04-07 22:15:29 RemoTV.networking ERROR - WebSocket ERROR: 'd'
2023-04-07 22:15:44 RemoTV.networking ERROR - WebSocket ERROR: 'd'
2023-04-07 22:15:59 RemoTV.networking ERROR - WebSocket ERROR: 'd'
2023-04-07 22:16:14 RemoTV.networking ERROR - WebSocket ERROR: 'd'
2023-04-07 22:16:29 RemoTV.networking ERROR - WebSocket ERROR: 'd'
2023-04-07 22:16:44 RemoTV.networking ERROR - WebSocket ERROR: 'd'
2023-04-07 22:16:59 RemoTV.networking ERROR - WebSocket ERROR: 'd'
2023-04-07 22:17:14 RemoTV.networking ERROR - WebSocket ERROR: 'd'
2023-04-07 22:17:30 RemoTV.networking ERROR - WebSocket ERROR: 'd'
2023-04-07 22:17:45 RemoTV.networking ERROR - WebSocket ERROR: 'd'
2023-04-07 22:18:00 RemoTV.networking ERROR - WebSocket ERROR: 'd'
2023-04-07 22:18:15 RemoTV.networking ERROR - WebSocket ERROR: 'd'
2023-04-07 22:18:30 RemoTV.networking ERROR - WebSocket ERROR: 'd'
2023-04-07 22:18:45 RemoTV.networking ERROR - WebSocket ERROR: 'd'
2023-04-07 22:19:00 RemoTV.networking ERROR - WebSocket ERROR: 'd'
2023-04-07 22:19:15 RemoTV.networking ERROR - WebSocket ERROR: 'd'
2023-04-07 22:19:30 RemoTV.networking ERROR - WebSocket ERROR: 'd'
2023-04-07 22:19:45 RemoTV.networking ERROR - WebSocket ERROR: 'd'
2023-04-07 22:20:01 RemoTV.networking ERROR - WebSocket ERROR: 'd'
2023-04-07 22:20:16 RemoTV.networking ERROR - WebSocket ERROR: 'd'
2023-04-07 22:20:31 RemoTV.networking ERROR - WebSocket ERROR: 'd'
2023-04-07 22:20:46 RemoTV.networking ERROR - WebSocket ERROR: 'd'
2023-04-07 22:21:01 RemoTV.networking ERROR - WebSocket ERROR: 'd'
2023-04-07 22:21:16 RemoTV.networking ERROR - WebSocket ERROR: 'd'
2023-04-07 22:21:31 RemoTV.networking ERROR - WebSocket ERROR: 'd'
2023-04-07 22:21:46 RemoTV.networking ERROR - WebSocket ERROR: 'd'
2023-04-07 22:22:01 RemoTV.networking ERROR - WebSocket ERROR: 'd'
2023-04-07 22:22:17 RemoTV.networking ERROR - WebSocket ERROR: 'd'
2023-04-07 22:22:32 RemoTV.networking ERROR - WebSocket ERROR: 'd'
2023-04-07 22:22:47 RemoTV.networking ERROR - WebSocket ERROR: 'd'
2023-04-07 22:23:02 RemoTV.networking ERROR - WebSocket ERROR: 'd'
2023-04-07 22:23:17 RemoTV.networking ERROR - WebSocket ERROR: 'd'
2023-04-07 22:23:32 RemoTV.networking ERROR - WebSocket ERROR: 'd'
2023-04-07 22:23:47 RemoTV.networking ERROR - WebSocket ERROR: 'd'
2023-04-07 22:24:02 RemoTV.networking ERROR - WebSocket ERROR: 'd'
2023-04-07 22:24:17 RemoTV.networking ERROR - WebSocket ERROR: 'd'
2023-04-07 22:24:32 RemoTV.networking ERROR - WebSocket ERROR: 'd'
2023-04-07 22:24:48 RemoTV.networking ERROR - WebSocket ERROR: 'd'
2023-04-07 22:25:03 RemoTV.networking ERROR - WebSocket ERROR: 'd'
2023-04-07 22:25:18 RemoTV.networking ERROR - WebSocket ERROR: 'd'
2023-04-07 22:25:33 RemoTV.networking ERROR - WebSocket ERROR: 'd'
2023-04-07 22:25:48 RemoTV.networking ERROR - WebSocket ERROR: 'd'
2023-04-07 22:26:03 RemoTV.networking ERROR - WebSocket ERROR: 'd'
2023-04-07 22:26:18 RemoTV.networking ERROR - WebSocket ERROR: 'd'
2023-04-07 22:26:33 RemoTV.networking ERROR - WebSocket ERROR: 'd'
2023-04-07 22:26:48 RemoTV.networking ERROR - WebSocket ERROR: 'd'
2023-04-07 22:27:04 RemoTV.networking ERROR - WebSocket ERROR: 'd'
2023-04-07 22:27:19 RemoTV.networking ERROR - WebSocket ERROR: 'd'
2023-04-07 22:27:34 RemoTV.networking ERROR - WebSocket ERROR: 'd'
2023-04-07 22:27:49 RemoTV.networking ERROR - WebSocket ERROR: 'd'
2023-04-07 22:28:04 RemoTV.networking ERROR - WebSocket ERROR: 'd'
2023-04-07 22:28:19 RemoTV.networking ERROR - WebSocket ERROR: 'd'
2023-04-07 22:28:34 RemoTV.networking ERROR - WebSocket ERROR: 'd'
2023-04-07 22:28:49 RemoTV.networking ERROR - WebSocket ERROR: 'd'
2023-04-07 22:29:04 RemoTV.networking ERROR - WebSocket ERROR: 'd'
2023-04-07 22:29:20 RemoTV.networking ERROR - WebSocket ERROR: 'd'
2023-04-07 22:29:35 RemoTV.networking ERROR - WebSocket ERROR: 'd'
2023-04-07 22:29:50 RemoTV.networking ERROR - WebSocket ERROR: 'd'
2023-04-07 22:30:05 RemoTV.networking ERROR - WebSocket ERROR: 'd'
2023-04-07 22:30:21 RemoTV.networking ERROR - WebSocket ERROR: 'd'
2023-04-07 22:30:35 RemoTV.networking ERROR - WebSocket ERROR: 'd'
2023-04-07 22:30:50 RemoTV.networking ERROR - WebSocket ERROR: 'd'
2023-04-07 22:31:05 RemoTV.networking ERROR - WebSocket ERROR: 'd'
2023-04-07 22:31:07 RemoTV.networking INFO - Sending Message : 22:31:07: Restarting audio...
2023-04-07 22:31:07 RemoTV.video.ffmpeg INFO - audioCommandLine : c://ffmpeg//bin//ffmpeg.exe -f dshow -ar 44100 -ac 1 -audio_buffer_size 250 -i audio="Microphone Array (Synaptics Audio)" -f mpegts -codec:a mp2  -b:a 32k -muxdelay 0.001 -nostats -headers "Authorization: Bearer eyJhbGciOiJIUzI1NiIsInR5cCI6IkpXVCJ9.eyJpZCI6InJib3QtZTJhM2MzMGMtN2JkMS00OGJmLWE5OTItMDdiZTgxOTdmMTcxIiwiaWF0IjoxNjc2NzUxNjIxLCJzdWIiOiIifQ.KYwUpV7DcWS6VIF6X3h43oJ_ZXqd_UmULlKzG4IjBQk" http://remo.tv:1567/transmit?name=rbot-e2a3c30c-7bd1-48bf-a992-07be8197f171-audio
2023-04-07 22:31:11 RemoTV.video.ffmpeg ERROR - ffmpeg Video : ['real-time buffer [ManyCam Virtual Webcam', '[video input', "too full or near too full (92% of size: 4000000 [rtbufsize parameter])! frame dropped!\r\nInput #1, image2, from 'overlay.png':\r\n  Duration: 00:00:00.20, start: 0.000000, bitrate: N/A\r\n  Stream #1:0: Video: png, rgba(pc), 1280x720, 5 fps, 5 tbr, 5 tbn\r\n[http @ 000002449e148840", 'No trailing CRLF found in HTTP header. Adding it.\r\n[dshow @ 000002449e13f5c0', 'real-time buffer [ManyCam Virtual Webcam', '[video input', 'too full or near too full (92% of size: 4000000 [rtbufsize parameter])! frame dropped!\r\n    Last message repeated 1 times\r\n[dshow @ 000002449e13f5c0', 'real-time buffer [ManyCam Virtual Webcam', '[video input', 'too full or near too full (138% of size: 4000000 [rtbufsize parameter])! frame dropped!\r\nStream mapping:\r\n  Stream #0:0 (rawvideo) -> overlay\r\n  Stream #1:0 (png) -> overlay\r\n  overlay:default -> Stream #0:0 (mpeg1video)\r\nPress [q', 'to stop, [?', 'for help\r\n[dshow @ 000002449e13f5c0', 'real-time buffer [ManyCam Virtual Webcam', '[video input', 'too full or near too full (138% of size: 4000000 [rtbufsize parameter])! frame dropped!\r\n[image2 @ 000002449e14ed80', "Thread message queue blocking; consider raising the thread_queue_size option (current value: 8)\r\nOutput #0, mpegts, to 'http://remo.tv:1567/transmit?name=rbot-e2a3c30c-7bd1-48bf-a992-07be8197f171-video':\r\n  Metadata:\r\n    encoder         : Lavf60.2.100\r\n  Stream #0:0: Video: mpeg1video, yuv420p(tv, progressive), 1280x720, q=2-31, 200 kb/s, 23.98 fps, 90k tbn\r\n    Metadata:\r\n      encoder         : Lavc60.2.100 mpeg1video\r\n    Side data:\r\n      cpb: bitrate max/min/avg: 0/0/200000 buffer size: 0 vbv_delay: N/A\r\n[image2 @ 000002449e14ed80", 'Could not open file : overlay.png\r\n[png @ 000002449e152740', 'chunk too big\r\nError while decoding stream #1:0: Invalid data found when processing input\r\n[dshow @ 000002449e13f5c0', 'real-time buffer [ManyCam Virtual Webcam', '[video input', 'too full or near too full (92% of size: 4000000 [rtbufsize parameter])! frame dropped!\r\n    Last message repeated 5 times\r\n[image2 @ 000002449e14ed80', 'Could not open file : overlay.png\r\n    Last message repeated 1 times\r\n[dshow @ 000002449e13f5c0', 'real-time buffer [ManyCam Virtual Webcam', '[video input', 'too full or near too full (92% of size: 4000000 [rtbufsize parameter])! frame dropped!\r\n[image2 @ 000002449e14ed80', 'Could not open file : overlay.png\r\n[dshow @ 000002449e13f5c0', '']
2023-04-07 22:31:11 RemoTV.video.ffmpeg INFO - videoCommandLine : c://ffmpeg//bin//ffmpeg.exe -f dshow -thread_queue_size 5096 -framerate 25 -video_size 1280x720 -r 25 -rtbufsize 4000000 -i video="ManyCam Virtual Webcam" -stream_loop "-1" -f image2 -framerate 5 -i overlay.png -filter_complex 'overlay'  -f mpegts -codec:v mpeg1video -b:v 200k -bf 0 -muxdelay 0.001 -r 20 -nostats -threads 4 -video_size 1280x720 -headers "Authorization: Bearer eyJhbGciOiJIUzI1NiIsInR5cCI6IkpXVCJ9.eyJpZCI6InJib3QtZTJhM2MzMGMtN2JkMS00OGJmLWE5OTItMDdiZTgxOTdmMTcxIiwiaWF0IjoxNjc2NzUxNjIxLCJzdWIiOiIifQ.KYwUpV7DcWS6VIF6X3h43oJ_ZXqd_UmULlKzG4IjBQk" http://remo.tv:1567/transmit?name=rbot-e2a3c30c-7bd1-48bf-a992-07be8197f171-video
2023-04-07 22:31:20 RemoTV.networking ERROR - WebSocket ERROR: 'd'
2023-04-07 22:31:36 RemoTV.networking ERROR - WebSocket ERROR: 'd'
2023-04-07 22:31:51 RemoTV.networking ERROR - WebSocket ERROR: 'd'
2023-04-07 22:32:06 RemoTV.networking ERROR - WebSocket ERROR: 'd'
2023-04-07 22:32:21 RemoTV.networking ERROR - WebSocket ERROR: 'd'
2023-04-07 22:32:31 RemoTV.networking INFO - Sending Message : Battery voltage: 3.94 Full at: 4.5
2023-04-07 22:32:36 RemoTV.networking ERROR - WebSocket ERROR: 'd'
2023-04-07 22:32:51 RemoTV.networking ERROR - WebSocket ERROR: 'd'
2023-04-07 22:32:55 RemoTV.networking INFO - Sending Message : Battery voltage: 3.94 Full at: 4.5
2023-04-07 22:33:06 RemoTV.networking ERROR - WebSocket ERROR: 'd'
2023-04-07 22:33:21 RemoTV.networking ERROR - WebSocket ERROR: 'd'
2023-04-07 22:33:36 RemoTV.networking ERROR - WebSocket ERROR: 'd'
2023-04-07 22:33:51 RemoTV.networking ERROR - WebSocket ERROR: 'd'
2023-04-07 22:34:07 RemoTV.networking ERROR - WebSocket ERROR: 'd'
2023-04-07 22:34:22 RemoTV.networking ERROR - WebSocket ERROR: 'd'
2023-04-07 22:34:37 RemoTV.networking ERROR - WebSocket ERROR: 'd'
2023-04-07 22:34:52 RemoTV.networking ERROR - WebSocket ERROR: 'd'
2023-04-07 22:35:01 RemoTV.networking INFO - Sending Message : 22:35:01: stopping audio.
2023-04-07 22:35:01 RemoTV.video.ffmpeg ERROR - ffmpeg Audio : ['No trailing CRLF found in HTTP header. Adding it.\r\nStream mapping:\r\n  Stream #0:0 -> #0:0 (pcm_s16le (native) -> mp2 (native))\r\nPress [q', 'to stop, [?', "for help\r\nOutput #0, mpegts, to 'http://remo.tv:1567/transmit?name=rbot-e2a3c30c-7bd1-48bf-a992-07be8197f171-audio':\r\n  Metadata:\r\n    encoder         : Lavf60.2.100\r\n  Stream #0:0: Audio: mp2, 44100 Hz, stereo, s16, 32 kb/s\r\n    Metadata:\r\n      encoder         : Lavc60.2.100 mp2\r\n"]
2023-04-07 22:35:07 RemoTV.networking ERROR - WebSocket ERROR: 'd'
2023-04-07 22:35:22 RemoTV.networking ERROR - WebSocket ERROR: 'd'
2023-04-07 22:35:37 RemoTV.networking ERROR - WebSocket ERROR: 'd'
2023-04-07 22:35:52 RemoTV.networking ERROR - WebSocket ERROR: 'd'
2023-04-07 22:36:07 RemoTV.networking ERROR - WebSocket ERROR: 'd'
2023-04-07 22:36:23 RemoTV.networking ERROR - WebSocket ERROR: 'd'
2023-04-07 22:36:38 RemoTV.networking ERROR - WebSocket ERROR: 'd'
2023-04-07 22:36:53 RemoTV.networking ERROR - WebSocket ERROR: 'd'
2023-04-07 22:37:08 RemoTV.networking ERROR - WebSocket ERROR: 'd'
2023-04-07 22:37:23 RemoTV.networking ERROR - WebSocket ERROR: 'd'
2023-04-07 22:37:38 RemoTV.networking ERROR - WebSocket ERROR: 'd'
2023-04-07 22:37:53 RemoTV.networking ERROR - WebSocket ERROR: 'd'
2023-04-07 22:38:08 RemoTV.networking ERROR - WebSocket ERROR: 'd'
2023-04-07 22:38:23 RemoTV.networking ERROR - WebSocket ERROR: 'd'
2023-04-07 22:38:38 RemoTV.networking ERROR - WebSocket ERROR: 'd'
2023-04-07 22:38:54 RemoTV.networking ERROR - WebSocket ERROR: 'd'
2023-04-07 22:39:04 RemoTV CRITICAL - Unhandled exception of type : <class 'KeyboardInterrupt'>
Traceback (most recent call last):
  File "controller.py", line 408, in <module>
    time.sleep(1)
KeyboardInterrupt
2023-04-07 22:39:05 RemoTV.video.ffmpeg ERROR - ffmpeg Video : ['No trailing CRLF found in HTTP header. Adding it.\r\n[dshow @ 00000221277af5c0', 'real-time buffer [ManyCam Virtual Webcam', '[video input', 'too full or near too full (92% of size: 4000000 [rtbufsize parameter])! frame dropped!\r\nStream mapping:\r\n  Stream #0:0 (rawvideo) -> overlay\r\n  Stream #1:0 (png) -> overlay\r\n  overlay:default -> Stream #0:0 (mpeg1video)\r\nPress [q', 'to stop, [?', 'for help\r\n[image2 @ 00000221277bedc0', "Thread message queue blocking; consider raising the thread_queue_size option (current value: 8)\r\nOutput #0, mpegts, to 'http://remo.tv:1567/transmit?name=rbot-e2a3c30c-7bd1-48bf-a992-07be8197f171-video':\r\n  Metadata:\r\n    encoder         : Lavf60.2.100\r\n  Stream #0:0: Video: mpeg1video, yuv420p(tv, progressive), 1280x720, q=2-31, 200 kb/s, 23.98 fps, 90k tbn\r\n    Metadata:\r\n      encoder         : Lavc60.2.100 mpeg1video\r\n    Side data:\r\n      cpb: bitrate max/min/avg: 0/0/200000 buffer size: 0 vbv_delay: N/A\r\n[image2 @ 00000221277bedc0", 'Could not open file : overlay.png\r\n    Last message repeated 1 times\r\n[dshow @ 00000221277af5c0', 'real-time buffer [ManyCam Virtual Webcam', '[video input', 'too full or near too full (92% of size: 4000000 [rtbufsize parameter])! frame dropped!\r\n[png @ 00000221277c8240', 'chunk too big\r\nError while decoding stream #1:0: Invalid data found when processing input\r\n[dshow @ 00000221277af5c0', 'real-time buffer [ManyCam Virtual Webcam', '[video input', 'too full or near too full (92% of size: 4000000 [rtbufsize parameter])! frame dropped!\r\n    Last message repeated 1 times\r\nframe=11468 fps= 24 q=31.0 Lsize=   27486kB time=00:07:58.22 bitrate= 470.8kbits/s dup=0 drop=488 speed=1.01x    \r\nvideo:23986kB audio:0kB subtitle:0kB other streams:0kB global headers:0kB muxing overhead: 14.591940%\r\nExiting normally, received signal 2.\r\n']
2023-04-07 22:39:10 RemoTV CRITICAL - RemoTV Controller Starting up
2023-04-07 22:39:10 RemoTV INFO - Loading tts
2023-04-07 22:39:10 RemoTV.tts INFO - Unable to find tts/tts_custom.py
2023-04-07 22:39:15 RemoTV INFO - Loading networking
2023-04-07 22:39:15 RemoTV.networking INFO - configuring web socket wss://remo.tv/
2023-04-07 22:39:15 RemoTV.networking INFO - staring websocket listen process
2023-04-07 22:39:16 RemoTV.networking INFO - websocket connected
2023-04-07 22:39:16 RemoTV.networking INFO - internet connected
2023-04-07 22:39:16 RemoTV INFO - Loading hardware module
2023-04-07 22:39:16 RemoTV WARNING - Unable to find hardware/hardware_custom.py
2023-04-07 22:39:16 RemoTV INFO - Loading video module
2023-04-07 22:39:16 RemoTV WARNING - Unable to find video/video_custom.py
2023-04-07 22:39:16 RemoTV INFO - Loading extended chat commands
2023-04-07 22:39:16 RemoTV.extended_command INFO - Moderators : 
2023-04-07 22:39:16 RemoTV WARNING - Unable to find chat_custom.py
2023-04-07 22:39:16 RemoTV CRITICAL - RemoTV Controller Started
2023-04-07 22:39:16 RemoTV.networking INFO - channel CozBot found with id : rbot-e2a3c30c-7bd1-48bf-a992-07be8197f171
2023-04-07 22:39:17 RemoTV.video.ffmpeg INFO - videoCommandLine : c://ffmpeg//bin//ffmpeg.exe -f dshow -thread_queue_size 5096 -framerate 25 -video_size 1280x720 -r 25 -rtbufsize 4000000 -i video="ManyCam Virtual Webcam" -stream_loop "-1" -f image2 -framerate 5 -i overlay.png -filter_complex 'overlay'  -f mpegts -codec:v mpeg1video -b:v 200k -bf 0 -muxdelay 0.001 -r 20 -nostats -threads 4 -video_size 1280x720 -headers "Authorization: Bearer eyJhbGciOiJIUzI1NiIsInR5cCI6IkpXVCJ9.eyJpZCI6InJib3QtZTJhM2MzMGMtN2JkMS00OGJmLWE5OTItMDdiZTgxOTdmMTcxIiwiaWF0IjoxNjc2NzUxNjIxLCJzdWIiOiIifQ.KYwUpV7DcWS6VIF6X3h43oJ_ZXqd_UmULlKzG4IjBQk" http://remo.tv:1567/transmit?name=rbot-e2a3c30c-7bd1-48bf-a992-07be8197f171-video
2023-04-07 22:39:17 RemoTV ERROR - Unknown event type
2023-04-07 22:39:24 RemoTV.networking ERROR - WebSocket ERROR: 'd'
2023-04-07 22:39:39 RemoTV.networking ERROR - WebSocket ERROR: 'd'
2023-04-07 22:39:54 RemoTV.networking ERROR - WebSocket ERROR: 'd'
2023-04-07 22:40:09 RemoTV.networking ERROR - WebSocket ERROR: 'd'
2023-04-07 22:40:24 RemoTV.networking ERROR - WebSocket ERROR: 'd'
2023-04-07 22:40:39 RemoTV.networking ERROR - WebSocket ERROR: 'd'
2023-04-07 22:40:54 RemoTV.networking ERROR - WebSocket ERROR: 'd'
2023-04-07 22:41:10 RemoTV.networking ERROR - WebSocket ERROR: 'd'
2023-04-07 22:41:25 RemoTV.networking ERROR - WebSocket ERROR: 'd'
2023-04-07 22:41:40 RemoTV.networking ERROR - WebSocket ERROR: 'd'
2023-04-07 22:41:55 RemoTV.networking ERROR - WebSocket ERROR: 'd'
2023-04-07 22:42:10 RemoTV.networking ERROR - WebSocket ERROR: 'd'
2023-04-07 22:42:25 RemoTV.networking ERROR - WebSocket ERROR: 'd'
2023-04-07 22:42:40 RemoTV.networking ERROR - WebSocket ERROR: 'd'
2023-04-07 22:42:55 RemoTV.networking ERROR - WebSocket ERROR: 'd'
2023-04-07 22:43:10 RemoTV.networking ERROR - WebSocket ERROR: 'd'
2023-04-07 22:43:26 RemoTV.networking ERROR - WebSocket ERROR: 'd'
2023-04-07 22:43:41 RemoTV.networking ERROR - WebSocket ERROR: 'd'
2023-04-07 22:43:56 RemoTV.networking ERROR - WebSocket ERROR: 'd'
2023-04-07 22:44:11 RemoTV.networking ERROR - WebSocket ERROR: 'd'
2023-04-07 22:44:26 RemoTV.networking ERROR - WebSocket ERROR: 'd'
2023-04-07 22:44:41 RemoTV.networking ERROR - WebSocket ERROR: 'd'
2023-04-07 22:44:56 RemoTV.networking ERROR - WebSocket ERROR: 'd'
2023-04-07 22:45:11 RemoTV.networking ERROR - WebSocket ERROR: 'd'
2023-04-07 22:45:27 RemoTV.networking ERROR - WebSocket ERROR: 'd'
2023-04-07 22:45:42 RemoTV.networking ERROR - WebSocket ERROR: 'd'
2023-04-07 22:45:57 RemoTV.networking ERROR - WebSocket ERROR: 'd'
2023-04-07 22:46:12 RemoTV.networking ERROR - WebSocket ERROR: 'd'
2023-04-07 22:46:27 RemoTV.networking ERROR - WebSocket ERROR: 'd'
2023-04-07 22:46:42 RemoTV.networking ERROR - WebSocket ERROR: 'd'
2023-04-07 22:46:57 RemoTV.networking ERROR - WebSocket ERROR: 'd'
2023-04-07 22:47:12 RemoTV.networking ERROR - WebSocket ERROR: 'd'
2023-04-07 22:47:27 RemoTV.networking ERROR - WebSocket ERROR: 'd'
2023-04-07 22:47:42 RemoTV.networking ERROR - WebSocket ERROR: 'd'
2023-04-07 22:47:58 RemoTV.networking ERROR - WebSocket ERROR: 'd'
2023-04-07 22:48:13 RemoTV.networking ERROR - WebSocket ERROR: 'd'
2023-04-07 22:48:28 RemoTV.networking ERROR - WebSocket ERROR: 'd'
2023-04-07 22:48:43 RemoTV.networking ERROR - WebSocket ERROR: 'd'
2023-04-07 22:48:58 RemoTV.networking ERROR - WebSocket ERROR: 'd'
2023-04-07 22:49:13 RemoTV.networking ERROR - WebSocket ERROR: 'd'
2023-04-07 22:49:28 RemoTV.networking ERROR - WebSocket ERROR: 'd'
2023-04-07 22:49:43 RemoTV.networking ERROR - WebSocket ERROR: 'd'
2023-04-07 22:49:58 RemoTV.networking ERROR - WebSocket ERROR: 'd'
2023-04-07 22:50:14 RemoTV.networking ERROR - WebSocket ERROR: 'd'
2023-04-07 22:50:29 RemoTV.networking ERROR - WebSocket ERROR: 'd'
2023-04-07 22:50:44 RemoTV.networking ERROR - WebSocket ERROR: 'd'
2023-04-07 22:50:59 RemoTV.networking ERROR - WebSocket ERROR: 'd'
2023-04-07 22:51:14 RemoTV.networking ERROR - WebSocket ERROR: 'd'
2023-04-07 22:51:29 RemoTV.networking ERROR - WebSocket ERROR: 'd'
2023-04-07 22:51:44 RemoTV.networking ERROR - WebSocket ERROR: 'd'
2023-04-07 22:51:59 RemoTV.networking ERROR - WebSocket ERROR: 'd'
2023-04-07 22:52:14 RemoTV.networking ERROR - WebSocket ERROR: 'd'
2023-04-07 22:52:30 RemoTV.networking ERROR - WebSocket ERROR: 'd'
2023-04-07 22:52:45 RemoTV.networking ERROR - WebSocket ERROR: 'd'
2023-04-07 22:53:00 RemoTV.networking ERROR - WebSocket ERROR: 'd'
2023-04-07 22:53:15 RemoTV.networking ERROR - WebSocket ERROR: 'd'
2023-04-07 22:53:30 RemoTV.networking ERROR - WebSocket ERROR: 'd'
2023-04-07 22:53:45 RemoTV.networking ERROR - WebSocket ERROR: 'd'
2023-04-07 22:54:00 RemoTV.networking ERROR - WebSocket ERROR: 'd'
2023-04-07 22:54:15 RemoTV.networking ERROR - WebSocket ERROR: 'd'
2023-04-07 22:54:30 RemoTV.networking ERROR - WebSocket ERROR: 'd'
2023-04-07 22:54:46 RemoTV.networking ERROR - WebSocket ERROR: 'd'
2023-04-07 22:55:01 RemoTV.networking ERROR - WebSocket ERROR: 'd'
2023-04-07 22:55:16 RemoTV.networking ERROR - WebSocket ERROR: 'd'
2023-04-07 22:55:31 RemoTV.networking ERROR - WebSocket ERROR: 'd'
2023-04-07 22:55:46 RemoTV.networking ERROR - WebSocket ERROR: 'd'
2023-04-07 22:56:01 RemoTV.networking ERROR - WebSocket ERROR: 'd'
2023-04-07 22:56:16 RemoTV.networking ERROR - WebSocket ERROR: 'd'
2023-04-07 22:56:31 RemoTV.networking ERROR - WebSocket ERROR: 'd'
2023-04-07 22:56:46 RemoTV.networking ERROR - WebSocket ERROR: 'd'
2023-04-07 22:57:01 RemoTV.networking ERROR - WebSocket ERROR: 'd'
2023-04-07 22:57:17 RemoTV.networking ERROR - WebSocket ERROR: 'd'
2023-04-07 22:57:32 RemoTV.networking ERROR - WebSocket ERROR: 'd'
2023-04-07 22:57:47 RemoTV.networking ERROR - WebSocket ERROR: 'd'
2023-04-07 22:58:02 RemoTV.networking ERROR - WebSocket ERROR: 'd'
2023-04-07 22:58:17 RemoTV.networking ERROR - WebSocket ERROR: 'd'
2023-04-07 22:58:32 RemoTV.networking ERROR - WebSocket ERROR: 'd'
2023-04-07 22:58:47 RemoTV.networking ERROR - WebSocket ERROR: 'd'
2023-04-07 22:59:02 RemoTV.networking ERROR - WebSocket ERROR: 'd'
2023-04-07 22:59:17 RemoTV.networking ERROR - WebSocket ERROR: 'd'
2023-04-07 22:59:32 RemoTV.networking ERROR - WebSocket ERROR: 'd'
2023-04-07 22:59:48 RemoTV.networking ERROR - WebSocket ERROR: 'd'
2023-04-07 23:00:03 RemoTV.networking ERROR - WebSocket ERROR: 'd'
2023-04-07 23:00:18 RemoTV.networking ERROR - WebSocket ERROR: 'd'
2023-04-07 23:00:33 RemoTV.networking ERROR - WebSocket ERROR: 'd'
2023-04-07 23:00:48 RemoTV.networking ERROR - WebSocket ERROR: 'd'
2023-04-07 23:01:03 RemoTV.networking ERROR - WebSocket ERROR: 'd'
2023-04-07 23:01:18 RemoTV.networking ERROR - WebSocket ERROR: 'd'
2023-04-07 23:01:33 RemoTV.networking ERROR - WebSocket ERROR: 'd'
2023-04-07 23:01:48 RemoTV.networking ERROR - WebSocket ERROR: 'd'
2023-04-07 23:02:03 RemoTV.networking ERROR - WebSocket ERROR: 'd'
2023-04-07 23:02:19 RemoTV.networking ERROR - WebSocket ERROR: 'd'
2023-04-07 23:02:34 RemoTV.networking ERROR - WebSocket ERROR: 'd'
2023-04-07 23:02:49 RemoTV.networking ERROR - WebSocket ERROR: 'd'
2023-04-07 23:03:04 RemoTV.networking ERROR - WebSocket ERROR: 'd'
2023-04-07 23:03:19 RemoTV.networking ERROR - WebSocket ERROR: 'd'
2023-04-07 23:03:34 RemoTV.networking ERROR - WebSocket ERROR: 'd'
2023-04-07 23:03:49 RemoTV.networking ERROR - WebSocket ERROR: 'd'
2023-04-07 23:04:04 RemoTV.networking ERROR - WebSocket ERROR: 'd'
2023-04-07 23:04:19 RemoTV.networking ERROR - WebSocket ERROR: 'd'
2023-04-07 23:04:35 RemoTV.networking ERROR - WebSocket ERROR: 'd'
2023-04-07 23:04:50 RemoTV.networking ERROR - WebSocket ERROR: 'd'
2023-04-07 23:05:05 RemoTV.networking ERROR - WebSocket ERROR: 'd'
2023-04-07 23:05:20 RemoTV.networking ERROR - WebSocket ERROR: 'd'
2023-04-07 23:05:35 RemoTV.networking ERROR - WebSocket ERROR: 'd'
2023-04-07 23:05:50 RemoTV.networking ERROR - WebSocket ERROR: 'd'
2023-04-07 23:06:05 RemoTV.networking ERROR - WebSocket ERROR: 'd'
2023-04-07 23:06:20 RemoTV.networking ERROR - WebSocket ERROR: 'd'
2023-04-07 23:06:35 RemoTV.networking ERROR - WebSocket ERROR: 'd'
2023-04-07 23:06:51 RemoTV.networking ERROR - WebSocket ERROR: 'd'
2023-04-07 23:07:06 RemoTV.networking ERROR - WebSocket ERROR: 'd'
2023-04-07 23:07:21 RemoTV.networking ERROR - WebSocket ERROR: 'd'
2023-04-07 23:07:36 RemoTV.networking ERROR - WebSocket ERROR: 'd'
2023-04-07 23:07:51 RemoTV.networking ERROR - WebSocket ERROR: 'd'
2023-04-07 23:08:06 RemoTV.networking ERROR - WebSocket ERROR: 'd'
2023-04-07 23:08:21 RemoTV.networking ERROR - WebSocket ERROR: 'd'
2023-04-07 23:08:36 RemoTV.networking ERROR - WebSocket ERROR: 'd'
2023-04-07 23:08:51 RemoTV.networking ERROR - WebSocket ERROR: 'd'
2023-04-07 23:09:06 RemoTV.networking ERROR - WebSocket ERROR: 'd'
2023-04-07 23:09:22 RemoTV.networking ERROR - WebSocket ERROR: 'd'
2023-04-07 23:09:37 RemoTV.networking ERROR - WebSocket ERROR: 'd'
2023-04-07 23:09:52 RemoTV.networking ERROR - WebSocket ERROR: 'd'
2023-04-07 23:10:07 RemoTV.networking ERROR - WebSocket ERROR: 'd'
2023-04-07 23:10:22 RemoTV.networking ERROR - WebSocket ERROR: 'd'
2023-04-07 23:10:37 RemoTV.networking ERROR - WebSocket ERROR: 'd'
2023-04-07 23:10:52 RemoTV.networking ERROR - WebSocket ERROR: 'd'
2023-04-07 23:11:07 RemoTV.networking ERROR - WebSocket ERROR: 'd'
2023-04-07 23:11:22 RemoTV.networking ERROR - WebSocket ERROR: 'd'
2023-04-07 23:11:37 RemoTV.networking ERROR - WebSocket ERROR: 'd'
2023-04-07 23:11:53 RemoTV.networking ERROR - WebSocket ERROR: 'd'
2023-04-07 23:12:08 RemoTV.networking ERROR - WebSocket ERROR: 'd'
2023-04-07 23:12:23 RemoTV.networking ERROR - WebSocket ERROR: 'd'
2023-04-07 23:12:38 RemoTV.networking ERROR - WebSocket ERROR: 'd'
2023-04-07 23:12:53 RemoTV.networking ERROR - WebSocket ERROR: 'd'
2023-04-07 23:13:08 RemoTV.networking ERROR - WebSocket ERROR: 'd'
2023-04-07 23:13:23 RemoTV.networking ERROR - WebSocket ERROR: 'd'
2023-04-07 23:13:38 RemoTV.networking ERROR - WebSocket ERROR: 'd'
2023-04-07 23:13:53 RemoTV.networking ERROR - WebSocket ERROR: 'd'
2023-04-07 23:14:09 RemoTV.networking ERROR - WebSocket ERROR: 'd'
2023-04-07 23:14:24 RemoTV.networking ERROR - WebSocket ERROR: 'd'
2023-04-07 23:14:39 RemoTV.networking ERROR - WebSocket ERROR: 'd'
2023-04-07 23:14:54 RemoTV.networking ERROR - WebSocket ERROR: 'd'
2023-04-07 23:15:09 RemoTV.networking ERROR - WebSocket ERROR: 'd'
2023-04-07 23:15:24 RemoTV.networking ERROR - WebSocket ERROR: 'd'
2023-04-07 23:15:39 RemoTV.networking ERROR - WebSocket ERROR: 'd'
2023-04-07 23:15:54 RemoTV.networking ERROR - WebSocket ERROR: 'd'
2023-04-07 23:16:09 RemoTV.networking ERROR - WebSocket ERROR: 'd'
2023-04-07 23:16:24 RemoTV.networking ERROR - WebSocket ERROR: 'd'
2023-04-07 23:16:40 RemoTV.networking ERROR - WebSocket ERROR: 'd'
2023-04-07 23:16:55 RemoTV.networking ERROR - WebSocket ERROR: 'd'
2023-04-07 23:17:10 RemoTV.networking ERROR - WebSocket ERROR: 'd'
2023-04-07 23:17:25 RemoTV.networking ERROR - WebSocket ERROR: 'd'
2023-04-07 23:17:40 RemoTV.networking ERROR - WebSocket ERROR: 'd'
2023-04-07 23:17:55 RemoTV.networking ERROR - WebSocket ERROR: 'd'
2023-04-07 23:18:10 RemoTV.networking ERROR - WebSocket ERROR: 'd'
2023-04-07 23:18:25 RemoTV.networking ERROR - WebSocket ERROR: 'd'
2023-04-07 23:18:41 RemoTV.networking ERROR - WebSocket ERROR: 'd'
2023-04-07 23:18:56 RemoTV.networking ERROR - WebSocket ERROR: 'd'
2023-04-07 23:19:11 RemoTV.networking ERROR - WebSocket ERROR: 'd'
2023-04-07 23:19:26 RemoTV.networking ERROR - WebSocket ERROR: 'd'
2023-04-07 23:19:41 RemoTV.networking ERROR - WebSocket ERROR: 'd'
2023-04-07 23:19:56 RemoTV.networking ERROR - WebSocket ERROR: 'd'
2023-04-07 23:20:11 RemoTV.networking ERROR - WebSocket ERROR: 'd'
2023-04-07 23:20:26 RemoTV.networking ERROR - WebSocket ERROR: 'd'
2023-04-07 23:20:41 RemoTV.networking ERROR - WebSocket ERROR: 'd'
2023-04-07 23:20:57 RemoTV.networking ERROR - WebSocket ERROR: 'd'
2023-04-07 23:21:12 RemoTV.networking ERROR - WebSocket ERROR: 'd'
2023-04-07 23:21:27 RemoTV.networking ERROR - WebSocket ERROR: 'd'
2023-04-07 23:21:42 RemoTV.networking ERROR - WebSocket ERROR: 'd'
2023-04-07 23:21:57 RemoTV.networking ERROR - WebSocket ERROR: 'd'
2023-04-07 23:22:12 RemoTV.networking ERROR - WebSocket ERROR: 'd'
2023-04-07 23:22:27 RemoTV.networking ERROR - WebSocket ERROR: 'd'
2023-04-07 23:22:42 RemoTV.networking ERROR - WebSocket ERROR: 'd'
2023-04-07 23:22:57 RemoTV.networking ERROR - WebSocket ERROR: 'd'
2023-04-07 23:23:12 RemoTV.networking ERROR - WebSocket ERROR: 'd'
2023-04-07 23:23:27 RemoTV.networking ERROR - WebSocket ERROR: 'd'
2023-04-07 23:23:43 RemoTV.networking ERROR - WebSocket ERROR: 'd'
2023-04-07 23:23:58 RemoTV.networking ERROR - WebSocket ERROR: 'd'
2023-04-07 23:24:13 RemoTV.networking ERROR - WebSocket ERROR: 'd'
2023-04-07 23:24:28 RemoTV.networking ERROR - WebSocket ERROR: 'd'
2023-04-07 23:24:43 RemoTV.networking ERROR - WebSocket ERROR: 'd'
2023-04-07 23:24:58 RemoTV.networking ERROR - WebSocket ERROR: 'd'
2023-04-07 23:25:13 RemoTV.networking ERROR - WebSocket ERROR: 'd'
2023-04-07 23:25:28 RemoTV.networking ERROR - WebSocket ERROR: 'd'
2023-04-07 23:25:43 RemoTV.networking ERROR - WebSocket ERROR: 'd'
2023-04-07 23:25:59 RemoTV.networking ERROR - WebSocket ERROR: 'd'
2023-04-07 23:26:14 RemoTV.networking ERROR - WebSocket ERROR: 'd'
2023-04-07 23:26:29 RemoTV.networking ERROR - WebSocket ERROR: 'd'
2023-04-07 23:26:44 RemoTV.networking ERROR - WebSocket ERROR: 'd'
2023-04-07 23:26:59 RemoTV.networking ERROR - WebSocket ERROR: 'd'
2023-04-07 23:27:14 RemoTV.networking ERROR - WebSocket ERROR: 'd'
2023-04-07 23:27:29 RemoTV.networking ERROR - WebSocket ERROR: 'd'
2023-04-07 23:27:44 RemoTV.networking ERROR - WebSocket ERROR: 'd'
2023-04-07 23:27:59 RemoTV.networking ERROR - WebSocket ERROR: 'd'
2023-04-07 23:28:15 RemoTV.networking ERROR - WebSocket ERROR: 'd'
2023-04-07 23:28:30 RemoTV.networking ERROR - WebSocket ERROR: 'd'
2023-04-07 23:28:45 RemoTV.networking ERROR - WebSocket ERROR: 'd'
2023-04-07 23:29:00 RemoTV.networking ERROR - WebSocket ERROR: 'd'
2023-04-07 23:29:15 RemoTV.networking ERROR - WebSocket ERROR: 'd'
2023-04-07 23:29:30 RemoTV.networking ERROR - WebSocket ERROR: 'd'
2023-04-07 23:29:45 RemoTV.networking ERROR - WebSocket ERROR: 'd'
2023-04-07 23:30:00 RemoTV.networking ERROR - WebSocket ERROR: 'd'
2023-04-07 23:30:16 RemoTV.networking ERROR - WebSocket ERROR: 'd'
2023-04-07 23:30:31 RemoTV.networking ERROR - WebSocket ERROR: 'd'
2023-04-07 23:30:46 RemoTV.networking ERROR - WebSocket ERROR: 'd'
2023-04-07 23:31:01 RemoTV.networking ERROR - WebSocket ERROR: 'd'
2023-04-07 23:31:16 RemoTV.networking ERROR - WebSocket ERROR: 'd'
2023-04-07 23:31:31 RemoTV.networking ERROR - WebSocket ERROR: 'd'
2023-04-07 23:31:46 RemoTV.networking ERROR - WebSocket ERROR: 'd'
2023-04-07 23:32:01 RemoTV.networking ERROR - WebSocket ERROR: 'd'
2023-04-07 23:32:17 RemoTV.networking ERROR - WebSocket ERROR: 'd'
2023-04-07 23:32:31 RemoTV.networking ERROR - WebSocket ERROR: 'd'
2023-04-07 23:32:47 RemoTV.networking ERROR - WebSocket ERROR: 'd'
2023-04-07 23:33:02 RemoTV.networking ERROR - WebSocket ERROR: 'd'
2023-04-07 23:33:17 RemoTV.networking ERROR - WebSocket ERROR: 'd'
2023-04-07 23:33:32 RemoTV.networking ERROR - WebSocket ERROR: 'd'
2023-04-07 23:33:47 RemoTV.networking ERROR - WebSocket ERROR: 'd'
2023-04-07 23:34:02 RemoTV.networking ERROR - WebSocket ERROR: 'd'
2023-04-07 23:34:17 RemoTV.networking ERROR - WebSocket ERROR: 'd'
2023-04-07 23:34:32 RemoTV.networking ERROR - WebSocket ERROR: 'd'
2023-04-07 23:34:47 RemoTV.networking ERROR - WebSocket ERROR: 'd'
2023-04-07 23:35:02 RemoTV.networking ERROR - WebSocket ERROR: 'd'
2023-04-07 23:35:18 RemoTV.networking ERROR - WebSocket ERROR: 'd'
2023-04-07 23:35:33 RemoTV.networking ERROR - WebSocket ERROR: 'd'
2023-04-07 23:35:48 RemoTV.networking ERROR - WebSocket ERROR: 'd'
2023-04-07 23:36:03 RemoTV.networking ERROR - WebSocket ERROR: 'd'
2023-04-07 23:36:18 RemoTV.networking ERROR - WebSocket ERROR: 'd'
2023-04-07 23:36:33 RemoTV.networking ERROR - WebSocket ERROR: 'd'
2023-04-07 23:36:48 RemoTV.networking ERROR - WebSocket ERROR: 'd'
2023-04-07 23:37:03 RemoTV.networking ERROR - WebSocket ERROR: 'd'
2023-04-07 23:37:19 RemoTV.networking ERROR - WebSocket ERROR: 'd'
2023-04-07 23:37:34 RemoTV.networking ERROR - WebSocket ERROR: 'd'
2023-04-07 23:37:49 RemoTV.networking ERROR - WebSocket ERROR: 'd'
2023-04-07 23:38:04 RemoTV.networking ERROR - WebSocket ERROR: 'd'
2023-04-07 23:38:19 RemoTV.networking ERROR - WebSocket ERROR: 'd'
2023-04-07 23:38:34 RemoTV.networking ERROR - WebSocket ERROR: 'd'
2023-04-07 23:38:49 RemoTV.networking ERROR - WebSocket ERROR: 'd'
2023-04-07 23:39:04 RemoTV.networking ERROR - WebSocket ERROR: 'd'
2023-04-07 23:39:19 RemoTV.networking ERROR - WebSocket ERROR: 'd'
2023-04-07 23:39:35 RemoTV.networking ERROR - WebSocket ERROR: 'd'
2023-04-07 23:39:50 RemoTV.networking ERROR - WebSocket ERROR: 'd'
2023-04-07 23:40:05 RemoTV.networking ERROR - WebSocket ERROR: 'd'
2023-04-07 23:40:20 RemoTV.networking ERROR - WebSocket ERROR: 'd'
2023-04-07 23:40:35 RemoTV.networking ERROR - WebSocket ERROR: 'd'
2023-04-07 23:40:50 RemoTV.networking ERROR - WebSocket ERROR: 'd'
2023-04-07 23:41:05 RemoTV.networking ERROR - WebSocket ERROR: 'd'
2023-04-07 23:41:20 RemoTV.networking ERROR - WebSocket ERROR: 'd'
2023-04-07 23:41:35 RemoTV.networking ERROR - WebSocket ERROR: 'd'
2023-04-07 23:41:51 RemoTV.networking ERROR - WebSocket ERROR: 'd'
2023-04-07 23:42:06 RemoTV.networking ERROR - WebSocket ERROR: 'd'
2023-04-07 23:42:21 RemoTV.networking ERROR - WebSocket ERROR: 'd'
2023-04-07 23:42:36 RemoTV.networking ERROR - WebSocket ERROR: 'd'
2023-04-07 23:42:51 RemoTV.networking ERROR - WebSocket ERROR: 'd'
2023-04-07 23:43:06 RemoTV.networking ERROR - WebSocket ERROR: 'd'
2023-04-07 23:43:21 RemoTV.networking ERROR - WebSocket ERROR: 'd'
2023-04-07 23:43:36 RemoTV.networking ERROR - WebSocket ERROR: 'd'
2023-04-07 23:43:51 RemoTV.networking ERROR - WebSocket ERROR: 'd'
2023-04-07 23:44:07 RemoTV.networking ERROR - WebSocket ERROR: 'd'
2023-04-07 23:44:22 RemoTV.networking ERROR - WebSocket ERROR: 'd'
2023-04-07 23:44:37 RemoTV.networking ERROR - WebSocket ERROR: 'd'
2023-04-07 23:44:52 RemoTV.networking ERROR - WebSocket ERROR: 'd'
2023-04-07 23:45:07 RemoTV.networking ERROR - WebSocket ERROR: 'd'
2023-04-07 23:45:22 RemoTV.networking ERROR - WebSocket ERROR: 'd'
2023-04-07 23:45:37 RemoTV.networking ERROR - WebSocket ERROR: 'd'
2023-04-07 23:45:52 RemoTV.networking ERROR - WebSocket ERROR: 'd'
2023-04-07 23:46:07 RemoTV.networking ERROR - WebSocket ERROR: 'd'
2023-04-07 23:46:22 RemoTV.networking ERROR - WebSocket ERROR: 'd'
2023-04-07 23:46:38 RemoTV.networking ERROR - WebSocket ERROR: 'd'
2023-04-07 23:46:53 RemoTV.networking ERROR - WebSocket ERROR: 'd'
2023-04-07 23:47:08 RemoTV.networking ERROR - WebSocket ERROR: 'd'
2023-04-07 23:47:23 RemoTV.networking ERROR - WebSocket ERROR: 'd'
2023-04-07 23:47:38 RemoTV.networking ERROR - WebSocket ERROR: 'd'
2023-04-07 23:47:53 RemoTV.networking ERROR - WebSocket ERROR: 'd'
2023-04-07 23:48:08 RemoTV.networking ERROR - WebSocket ERROR: 'd'
2023-04-07 23:48:23 RemoTV.networking ERROR - WebSocket ERROR: 'd'
2023-04-07 23:48:38 RemoTV.networking ERROR - WebSocket ERROR: 'd'
2023-04-07 23:48:54 RemoTV.networking ERROR - WebSocket ERROR: 'd'
2023-04-07 23:49:09 RemoTV.networking ERROR - WebSocket ERROR: 'd'
2023-04-07 23:49:24 RemoTV.networking ERROR - WebSocket ERROR: 'd'
2023-04-07 23:49:39 RemoTV.networking ERROR - WebSocket ERROR: 'd'
2023-04-07 23:49:54 RemoTV.networking ERROR - WebSocket ERROR: 'd'
2023-04-07 23:50:09 RemoTV.networking ERROR - WebSocket ERROR: 'd'
2023-04-07 23:50:24 RemoTV.networking ERROR - WebSocket ERROR: 'd'
2023-04-07 23:50:39 RemoTV.networking ERROR - WebSocket ERROR: 'd'
2023-04-07 23:50:54 RemoTV.networking ERROR - WebSocket ERROR: 'd'
2023-04-07 23:51:09 RemoTV.networking ERROR - WebSocket ERROR: 'd'
2023-04-07 23:51:25 RemoTV.networking ERROR - WebSocket ERROR: 'd'
2023-04-07 23:51:40 RemoTV.networking ERROR - WebSocket ERROR: 'd'
2023-04-07 23:51:55 RemoTV.networking ERROR - WebSocket ERROR: 'd'
2023-04-07 23:52:10 RemoTV.networking ERROR - WebSocket ERROR: 'd'
2023-04-07 23:52:25 RemoTV.networking ERROR - WebSocket ERROR: 'd'
2023-04-07 23:52:40 RemoTV.networking ERROR - WebSocket ERROR: 'd'
2023-04-07 23:52:55 RemoTV.networking ERROR - WebSocket ERROR: 'd'
2023-04-07 23:53:10 RemoTV.networking ERROR - WebSocket ERROR: 'd'
2023-04-07 23:53:25 RemoTV.networking ERROR - WebSocket ERROR: 'd'
2023-04-07 23:53:41 RemoTV.networking ERROR - WebSocket ERROR: 'd'
2023-04-07 23:53:56 RemoTV.networking ERROR - WebSocket ERROR: 'd'
2023-04-07 23:54:11 RemoTV.networking ERROR - WebSocket ERROR: 'd'
2023-04-07 23:54:26 RemoTV.networking ERROR - WebSocket ERROR: 'd'
2023-04-07 23:54:41 RemoTV.networking ERROR - WebSocket ERROR: 'd'
2023-04-07 23:54:56 RemoTV.networking ERROR - WebSocket ERROR: 'd'
2023-04-07 23:55:11 RemoTV.networking ERROR - WebSocket ERROR: 'd'
2023-04-07 23:55:26 RemoTV.networking ERROR - WebSocket ERROR: 'd'
2023-04-07 23:55:41 RemoTV.networking ERROR - WebSocket ERROR: 'd'
2023-04-07 23:55:56 RemoTV.networking ERROR - WebSocket ERROR: 'd'
2023-04-07 23:56:12 RemoTV.networking ERROR - WebSocket ERROR: 'd'
2023-04-07 23:56:27 RemoTV.networking ERROR - WebSocket ERROR: 'd'
2023-04-07 23:56:42 RemoTV.networking ERROR - WebSocket ERROR: 'd'
2023-04-07 23:56:57 RemoTV.networking ERROR - WebSocket ERROR: 'd'
2023-04-07 23:56:58 RemoTV.networking INFO - Sending Message : 23:56:58: Restarting audio...
2023-04-07 23:56:58 RemoTV.video.ffmpeg INFO - audioCommandLine : c://ffmpeg//bin//ffmpeg.exe -f dshow -ar 44100 -ac 1 -audio_buffer_size 250 -i audio="Microphone Array (Synaptics Audio)" -f mpegts -codec:a mp2  -b:a 32k -muxdelay 0.001 -nostats -headers "Authorization: Bearer eyJhbGciOiJIUzI1NiIsInR5cCI6IkpXVCJ9.eyJpZCI6InJib3QtZTJhM2MzMGMtN2JkMS00OGJmLWE5OTItMDdiZTgxOTdmMTcxIiwiaWF0IjoxNjc2NzUxNjIxLCJzdWIiOiIifQ.KYwUpV7DcWS6VIF6X3h43oJ_ZXqd_UmULlKzG4IjBQk" http://remo.tv:1567/transmit?name=rbot-e2a3c30c-7bd1-48bf-a992-07be8197f171-audio
2023-04-07 23:57:02 RemoTV.video.ffmpeg ERROR - ffmpeg Video : ['No trailing CRLF found in HTTP header. Adding it.\r\nStream mapping:\r\n  Stream #0:0 (rawvideo) -> overlay\r\n  Stream #1:0 (png) -> overlay\r\n  overlay:default -> Stream #0:0 (mpeg1video)\r\nPress [q', 'to stop, [?', 'for help\r\n[image2 @ 000002946001edc0', "Thread message queue blocking; consider raising the thread_queue_size option (current value: 8)\r\nOutput #0, mpegts, to 'http://remo.tv:1567/transmit?name=rbot-e2a3c30c-7bd1-48bf-a992-07be8197f171-video':\r\n  Metadata:\r\n    encoder         : Lavf60.2.100\r\n  Stream #0:0: Video: mpeg1video, yuv420p(tv, progressive), 1280x720, q=2-31, 200 kb/s, 23.98 fps, 90k tbn\r\n    Metadata:\r\n      encoder         : Lavc60.2.100 mpeg1video\r\n    Side data:\r\n      cpb: bitrate max/min/avg: 0/0/200000 buffer size: 0 vbv_delay: N/A\r\n[dshow @ 000002946000f5c0", 'real-time buffer [ManyCam Virtual Webcam', '[video input', 'too full or near too full (92% of size: 4000000 [rtbufsize parameter])! frame dropped!\r\n    Last message repeated 5 times\r\n[image2 @ 000002946001edc0', 'Could not open file : overlay.png\r\n    Last message repeated 1 times\r\n[png @ 0000029460035b80', 'chunk too big\r\nError while decoding stream #1:0: Invalid data found when processing input\r\n[dshow @ 000002946000f5c0', 'real-time buffer [ManyCam Virtual Webcam', '[video input', 'too full or near too full (92% of size: 4000000 [rtbufsize parameter])! frame dropped!\r\n    Last message repeated 1 times\r\n[image2 @ 000002946001edc0', 'Could not open file : overlay.png\r\n[png @ 0000029460035b80', 'chunk too big\r\nError while decoding stream #1:0: Invalid data found when processing input\r\n[dshow @ 000002946000f5c0', 'real-time buffer [ManyCam Virtual Webcam', '[video input', 'too full or near too full (92% of size: 4000000 [rtbufsize parameter])! frame dropped!\r\n[image2 @ 000002946001edc0', 'Could not open file : overlay.png\r\n[png @ 0000029460035b80', 'chunk too big\r\nError while decoding stream #1:0: Invalid data found when processing input\r\n[png @ 0000029460035b80', 'chunk too big\r\nError while decoding stream #1:0: Invalid data found when processing input\r\n[dshow @ 000002946000f5c0', 'real-time buffer [ManyCam Virtual Webcam', '[video input', 'too full or near too full (92% of size: 4000000 [rtbufsize parameter])! frame dropped!\r\n  ']
2023-04-07 23:57:02 RemoTV.video.ffmpeg INFO - videoCommandLine : c://ffmpeg//bin//ffmpeg.exe -f dshow -thread_queue_size 5096 -framerate 25 -video_size 1280x720 -r 25 -rtbufsize 4000000 -i video="ManyCam Virtual Webcam" -stream_loop "-1" -f image2 -framerate 5 -i overlay.png -filter_complex 'overlay'  -f mpegts -codec:v mpeg1video -b:v 200k -bf 0 -muxdelay 0.001 -r 20 -nostats -threads 4 -video_size 1280x720 -headers "Authorization: Bearer eyJhbGciOiJIUzI1NiIsInR5cCI6IkpXVCJ9.eyJpZCI6InJib3QtZTJhM2MzMGMtN2JkMS00OGJmLWE5OTItMDdiZTgxOTdmMTcxIiwiaWF0IjoxNjc2NzUxNjIxLCJzdWIiOiIifQ.KYwUpV7DcWS6VIF6X3h43oJ_ZXqd_UmULlKzG4IjBQk" http://remo.tv:1567/transmit?name=rbot-e2a3c30c-7bd1-48bf-a992-07be8197f171-video
2023-04-07 23:57:12 RemoTV.networking ERROR - WebSocket ERROR: 'd'
2023-04-07 23:57:27 RemoTV.networking ERROR - WebSocket ERROR: 'd'
2023-04-07 23:57:42 RemoTV.networking ERROR - WebSocket ERROR: 'd'
2023-04-07 23:57:57 RemoTV.networking ERROR - WebSocket ERROR: 'd'
2023-04-07 23:58:12 RemoTV.networking ERROR - WebSocket ERROR: 'd'
2023-04-07 23:58:19 RemoTV INFO - chat message received: {'message': '.cam ur', 'sender': 'BaeconTv', 'sender_id': 'user-d78acf39-f7a5-48c0-98fd-5b7349f2aba0', 'chat_id': 'chat-f6fe67bf-af64-47b1-a00a-103f0f0525a5', 'server_id': 'serv-67b56601-6a37-47fe-9fa9-6d47a3e1bfa1', 'id': 'mesg-ada1d0e2-c503-4da3-8005-cd99f6c20d38', 'time_stamp': 1680937099368, 'broadcast': '', 'channel_id': 'rbot-e2a3c30c-7bd1-48bf-a992-07be8197f171', 'display_message': True, 'badges': ['patreon100'], 'type': ''}
2023-04-07 23:58:27 RemoTV.networking ERROR - WebSocket ERROR: 'd'
2023-04-07 23:58:34 RemoTV INFO - chat message received: {'message': 'Thank you', 'sender': 'BaeconTv', 'sender_id': 'user-d78acf39-f7a5-48c0-98fd-5b7349f2aba0', 'chat_id': 'chat-f6fe67bf-af64-47b1-a00a-103f0f0525a5', 'server_id': 'serv-67b56601-6a37-47fe-9fa9-6d47a3e1bfa1', 'id': 'mesg-0ecea8e9-ddfc-4d10-9194-2dbb31118b38', 'time_stamp': 1680937114795, 'broadcast': '', 'channel_id': 'rbot-e2a3c30c-7bd1-48bf-a992-07be8197f171', 'display_message': True, 'badges': ['patreon100'], 'type': ''}
2023-04-07 23:58:43 RemoTV.networking ERROR - WebSocket ERROR: 'd'
2023-04-07 23:58:58 RemoTV.networking ERROR - WebSocket ERROR: 'd'
2023-04-07 23:59:13 RemoTV.networking ERROR - WebSocket ERROR: 'd'
2023-04-07 23:59:28 RemoTV.networking ERROR - WebSocket ERROR: 'd'
2023-04-07 23:59:43 RemoTV.networking ERROR - WebSocket ERROR: 'd'
2023-04-07 23:59:58 RemoTV.networking ERROR - WebSocket ERROR: 'd'
2023-04-08 00:00:13 RemoTV.networking ERROR - WebSocket ERROR: 'd'
2023-04-08 00:00:28 RemoTV.networking ERROR - WebSocket ERROR: 'd'
2023-04-08 00:00:43 RemoTV.networking ERROR - WebSocket ERROR: 'd'
2023-04-08 00:00:58 RemoTV.networking ERROR - WebSocket ERROR: 'd'
2023-04-08 00:01:14 RemoTV.networking ERROR - WebSocket ERROR: 'd'
2023-04-08 00:01:29 RemoTV.networking ERROR - WebSocket ERROR: 'd'
2023-04-08 00:01:30 RemoTV.networking INFO - Sending Message : 00:01:30: stopping audio.
2023-04-08 00:01:30 RemoTV.video.ffmpeg ERROR - ffmpeg Audio : ['No trailing CRLF found in HTTP header. Adding it.\r\nStream mapping:\r\n  Stream #0:0 -> #0:0 (pcm_s16le (native) -> mp2 (native))\r\nPress [q', 'to stop, [?', "for help\r\nOutput #0, mpegts, to 'http://remo.tv:1567/transmit?name=rbot-e2a3c30c-7bd1-48bf-a992-07be8197f171-audio':\r\n  Metadata:\r\n    encoder         : Lavf60.2.100\r\n  Stream #0:0: Audio: mp2, 44100 Hz, stereo, s16, 32 kb/s\r\n    Metadata:\r\n      encoder         : Lavc60.2.100 mp2\r\n"]
2023-04-08 00:01:44 RemoTV.networking ERROR - WebSocket ERROR: 'd'
2023-04-08 00:01:59 RemoTV.networking ERROR - WebSocket ERROR: 'd'
2023-04-08 00:02:14 RemoTV.networking ERROR - WebSocket ERROR: 'd'
2023-04-08 00:02:29 RemoTV.networking ERROR - WebSocket ERROR: 'd'
2023-04-08 00:02:44 RemoTV.networking ERROR - WebSocket ERROR: 'd'
2023-04-08 00:02:59 RemoTV.networking ERROR - WebSocket ERROR: 'd'
2023-04-08 00:03:14 RemoTV.networking ERROR - WebSocket ERROR: 'd'
2023-04-08 00:03:29 RemoTV.networking ERROR - WebSocket ERROR: 'd'
2023-04-08 00:03:45 RemoTV.networking ERROR - WebSocket ERROR: 'd'
2023-04-08 00:04:00 RemoTV.networking ERROR - WebSocket ERROR: 'd'
2023-04-08 00:04:15 RemoTV.networking ERROR - WebSocket ERROR: 'd'
2023-04-08 00:04:30 RemoTV.networking ERROR - WebSocket ERROR: 'd'
2023-04-08 00:04:45 RemoTV.networking ERROR - WebSocket ERROR: 'd'
2023-04-08 00:05:00 RemoTV.networking ERROR - WebSocket ERROR: 'd'
2023-04-08 00:05:15 RemoTV.networking ERROR - WebSocket ERROR: 'd'
2023-04-08 00:05:30 RemoTV.networking ERROR - WebSocket ERROR: 'd'
2023-04-08 00:05:45 RemoTV.networking ERROR - WebSocket ERROR: 'd'
2023-04-08 00:06:01 RemoTV.networking ERROR - WebSocket ERROR: 'd'
2023-04-08 00:06:16 RemoTV.networking ERROR - WebSocket ERROR: 'd'
2023-04-08 00:06:31 RemoTV.networking ERROR - WebSocket ERROR: 'd'
2023-04-08 00:06:46 RemoTV.networking ERROR - WebSocket ERROR: 'd'
2023-04-08 00:07:01 RemoTV.networking ERROR - WebSocket ERROR: 'd'
2023-04-08 00:07:16 RemoTV.networking ERROR - WebSocket ERROR: 'd'
2023-04-08 00:07:31 RemoTV.networking ERROR - WebSocket ERROR: 'd'
2023-04-08 00:07:46 RemoTV.networking ERROR - WebSocket ERROR: 'd'
2023-04-08 00:08:01 RemoTV.networking ERROR - WebSocket ERROR: 'd'
2023-04-08 00:08:17 RemoTV.networking ERROR - WebSocket ERROR: 'd'
2023-04-08 00:08:32 RemoTV.networking ERROR - WebSocket ERROR: 'd'
2023-04-08 00:08:47 RemoTV.networking ERROR - WebSocket ERROR: 'd'
2023-04-08 00:09:02 RemoTV.networking ERROR - WebSocket ERROR: 'd'
2023-04-08 00:09:17 RemoTV.networking ERROR - WebSocket ERROR: 'd'
2023-04-08 00:09:32 RemoTV.networking ERROR - WebSocket ERROR: 'd'
2023-04-08 00:09:47 RemoTV.networking ERROR - WebSocket ERROR: 'd'
2023-04-08 00:10:02 RemoTV.networking ERROR - WebSocket ERROR: 'd'
2023-04-08 00:10:17 RemoTV.networking ERROR - WebSocket ERROR: 'd'
2023-04-08 00:10:32 RemoTV.networking ERROR - WebSocket ERROR: 'd'
2023-04-08 00:10:48 RemoTV.networking ERROR - WebSocket ERROR: 'd'
2023-04-08 00:11:03 RemoTV.networking ERROR - WebSocket ERROR: 'd'
2023-04-08 00:11:18 RemoTV.networking ERROR - WebSocket ERROR: 'd'
2023-04-08 00:11:33 RemoTV.networking ERROR - WebSocket ERROR: 'd'
2023-04-08 00:11:48 RemoTV.networking ERROR - WebSocket ERROR: 'd'
2023-04-08 00:12:03 RemoTV.networking ERROR - WebSocket ERROR: 'd'
2023-04-08 00:12:18 RemoTV.networking ERROR - WebSocket ERROR: 'd'
2023-04-08 00:12:33 RemoTV.networking ERROR - WebSocket ERROR: 'd'
2023-04-08 00:12:48 RemoTV.networking ERROR - WebSocket ERROR: 'd'
2023-04-08 00:13:04 RemoTV.networking ERROR - WebSocket ERROR: 'd'
2023-04-08 00:13:19 RemoTV.networking ERROR - WebSocket ERROR: 'd'
2023-04-08 00:13:34 RemoTV.networking ERROR - WebSocket ERROR: 'd'
2023-04-08 00:13:49 RemoTV.networking ERROR - WebSocket ERROR: 'd'
2023-04-08 00:14:04 RemoTV.networking ERROR - WebSocket ERROR: 'd'
2023-04-08 00:14:19 RemoTV.networking ERROR - WebSocket ERROR: 'd'
2023-04-08 00:14:34 RemoTV.networking ERROR - WebSocket ERROR: 'd'
2023-04-08 00:14:49 RemoTV.networking ERROR - WebSocket ERROR: 'd'
2023-04-08 00:15:04 RemoTV.networking ERROR - WebSocket ERROR: 'd'
2023-04-08 00:15:20 RemoTV.networking ERROR - WebSocket ERROR: 'd'
2023-04-08 00:15:35 RemoTV.networking ERROR - WebSocket ERROR: 'd'
2023-04-08 00:15:50 RemoTV.networking ERROR - WebSocket ERROR: 'd'
2023-04-08 00:16:05 RemoTV.networking ERROR - WebSocket ERROR: 'd'
2023-04-08 00:16:20 RemoTV.networking ERROR - WebSocket ERROR: 'd'
2023-04-08 00:16:35 RemoTV.networking ERROR - WebSocket ERROR: 'd'
2023-04-08 00:16:50 RemoTV.networking ERROR - WebSocket ERROR: 'd'
2023-04-08 00:17:05 RemoTV.networking ERROR - WebSocket ERROR: 'd'
2023-04-08 00:17:20 RemoTV.networking ERROR - WebSocket ERROR: 'd'
2023-04-08 00:17:36 RemoTV.networking ERROR - WebSocket ERROR: 'd'
2023-04-08 00:17:51 RemoTV.networking ERROR - WebSocket ERROR: 'd'
2023-04-08 00:18:06 RemoTV.networking ERROR - WebSocket ERROR: 'd'
2023-04-08 00:18:21 RemoTV.networking ERROR - WebSocket ERROR: 'd'
2023-04-08 00:18:36 RemoTV.networking ERROR - WebSocket ERROR: 'd'
2023-04-08 00:18:51 RemoTV.networking ERROR - WebSocket ERROR: 'd'
2023-04-08 00:19:06 RemoTV.networking ERROR - WebSocket ERROR: 'd'
2023-04-08 00:19:21 RemoTV.networking ERROR - WebSocket ERROR: 'd'
2023-04-08 00:19:37 RemoTV.networking ERROR - WebSocket ERROR: 'd'
2023-04-08 00:19:52 RemoTV.networking ERROR - WebSocket ERROR: 'd'
2023-04-08 00:20:07 RemoTV.networking ERROR - WebSocket ERROR: 'd'
2023-04-08 00:20:22 RemoTV.networking ERROR - WebSocket ERROR: 'd'
2023-04-08 00:20:37 RemoTV.networking ERROR - WebSocket ERROR: 'd'
2023-04-08 00:20:52 RemoTV.networking ERROR - WebSocket ERROR: 'd'
2023-04-08 00:21:07 RemoTV.networking ERROR - WebSocket ERROR: 'd'
2023-04-08 00:21:22 RemoTV.networking ERROR - WebSocket ERROR: 'd'
2023-04-08 00:21:37 RemoTV.networking ERROR - WebSocket ERROR: 'd'
2023-04-08 00:21:52 RemoTV.networking ERROR - WebSocket ERROR: 'd'
2023-04-08 00:22:08 RemoTV.networking ERROR - WebSocket ERROR: 'd'
2023-04-08 00:22:23 RemoTV.networking ERROR - WebSocket ERROR: 'd'
2023-04-08 00:22:38 RemoTV.networking ERROR - WebSocket ERROR: 'd'
2023-04-08 00:22:53 RemoTV.networking ERROR - WebSocket ERROR: 'd'
2023-04-08 00:23:08 RemoTV.networking ERROR - WebSocket ERROR: 'd'
2023-04-08 00:23:23 RemoTV.networking ERROR - WebSocket ERROR: 'd'
2023-04-08 00:23:38 RemoTV.networking ERROR - WebSocket ERROR: 'd'
2023-04-08 00:23:53 RemoTV.networking ERROR - WebSocket ERROR: 'd'
2023-04-08 00:24:08 RemoTV.networking ERROR - WebSocket ERROR: 'd'
2023-04-08 00:24:24 RemoTV.networking ERROR - WebSocket ERROR: 'd'
2023-04-08 00:24:39 RemoTV.networking ERROR - WebSocket ERROR: 'd'
2023-04-08 00:24:54 RemoTV.networking ERROR - WebSocket ERROR: 'd'
2023-04-08 00:25:09 RemoTV.networking ERROR - WebSocket ERROR: 'd'
2023-04-08 00:25:24 RemoTV.networking ERROR - WebSocket ERROR: 'd'
2023-04-08 00:25:39 RemoTV.networking ERROR - WebSocket ERROR: 'd'
2023-04-08 00:25:54 RemoTV.networking ERROR - WebSocket ERROR: 'd'
2023-04-08 00:26:09 RemoTV.networking ERROR - WebSocket ERROR: 'd'
2023-04-08 00:26:24 RemoTV.networking ERROR - WebSocket ERROR: 'd'
2023-04-08 00:26:39 RemoTV.networking ERROR - WebSocket ERROR: 'd'
2023-04-08 00:26:55 RemoTV.networking ERROR - WebSocket ERROR: 'd'
2023-04-08 00:27:10 RemoTV.networking ERROR - WebSocket ERROR: 'd'
2023-04-08 00:27:25 RemoTV.networking ERROR - WebSocket ERROR: 'd'
2023-04-08 00:27:40 RemoTV.networking ERROR - WebSocket ERROR: 'd'
2023-04-08 00:27:55 RemoTV.networking ERROR - WebSocket ERROR: 'd'
2023-04-08 00:28:10 RemoTV.networking ERROR - WebSocket ERROR: 'd'
2023-04-08 00:28:25 RemoTV.networking ERROR - WebSocket ERROR: 'd'
2023-04-08 00:28:40 RemoTV.networking ERROR - WebSocket ERROR: 'd'
2023-04-08 00:28:55 RemoTV.networking ERROR - WebSocket ERROR: 'd'
2023-04-08 00:29:11 RemoTV.networking ERROR - WebSocket ERROR: 'd'
2023-04-08 00:29:26 RemoTV.networking ERROR - WebSocket ERROR: 'd'
2023-04-08 00:29:41 RemoTV.networking ERROR - WebSocket ERROR: 'd'
2023-04-08 00:29:56 RemoTV.networking ERROR - WebSocket ERROR: 'd'
2023-04-08 00:30:11 RemoTV.networking ERROR - WebSocket ERROR: 'd'
2023-04-08 00:30:26 RemoTV.networking ERROR - WebSocket ERROR: 'd'
2023-04-08 00:30:41 RemoTV.networking ERROR - WebSocket ERROR: 'd'
2023-04-08 00:30:56 RemoTV.networking ERROR - WebSocket ERROR: 'd'
2023-04-08 00:31:11 RemoTV.networking ERROR - WebSocket ERROR: 'd'
2023-04-08 00:31:26 RemoTV.networking ERROR - WebSocket ERROR: 'd'
2023-04-08 00:31:42 RemoTV.networking ERROR - WebSocket ERROR: 'd'
2023-04-08 00:31:57 RemoTV.networking ERROR - WebSocket ERROR: 'd'
2023-04-08 00:32:12 RemoTV.networking ERROR - WebSocket ERROR: 'd'
2023-04-08 00:32:27 RemoTV.networking ERROR - WebSocket ERROR: 'd'
2023-04-08 00:32:42 RemoTV.networking ERROR - WebSocket ERROR: 'd'
2023-04-08 00:32:57 RemoTV.networking ERROR - WebSocket ERROR: 'd'
2023-04-08 00:33:12 RemoTV.networking ERROR - WebSocket ERROR: 'd'
2023-04-08 00:33:27 RemoTV.networking ERROR - WebSocket ERROR: 'd'
2023-04-08 00:33:42 RemoTV.networking ERROR - WebSocket ERROR: 'd'
2023-04-08 00:33:58 RemoTV.networking ERROR - WebSocket ERROR: 'd'
2023-04-08 00:34:13 RemoTV.networking ERROR - WebSocket ERROR: 'd'
2023-04-08 00:34:28 RemoTV.networking ERROR - WebSocket ERROR: 'd'
2023-04-08 00:34:43 RemoTV.networking ERROR - WebSocket ERROR: 'd'
2023-04-08 00:34:58 RemoTV.networking ERROR - WebSocket ERROR: 'd'
2023-04-08 00:35:13 RemoTV.networking ERROR - WebSocket ERROR: 'd'
2023-04-08 00:35:28 RemoTV.networking ERROR - WebSocket ERROR: 'd'
2023-04-08 00:35:43 RemoTV.networking ERROR - WebSocket ERROR: 'd'
2023-04-08 00:35:58 RemoTV.networking ERROR - WebSocket ERROR: 'd'
2023-04-08 00:36:13 RemoTV.networking ERROR - WebSocket ERROR: 'd'
2023-04-08 00:36:29 RemoTV.networking ERROR - WebSocket ERROR: 'd'
2023-04-08 00:36:44 RemoTV.networking ERROR - WebSocket ERROR: 'd'
2023-04-08 00:36:59 RemoTV.networking ERROR - WebSocket ERROR: 'd'
2023-04-08 00:37:14 RemoTV.networking ERROR - WebSocket ERROR: 'd'
2023-04-08 00:37:17 RemoTV.video.ffmpeg ERROR - ffmpeg Video : ['No trailing CRLF found in HTTP header. Adding it.\r\n[dshow @ 00000236459cf5c0', 'real-time buffer [ManyCam Virtual Webcam', '[video input', 'too full or near too full (92% of size: 4000000 [rtbufsize parameter])! frame dropped!\r\n    Last message repeated 2 times\r\nStream mapping:\r\n  Stream #0:0 (rawvideo) -> overlay\r\n  Stream #1:0 (png) -> overlay\r\n  overlay:default -> Stream #0:0 (mpeg1video)\r\nPress [q', 'to stop, [?', 'for help\r\n[image2 @ 00000236459dedc0', "Thread message queue blocking; consider raising the thread_queue_size option (current value: 8)\r\nOutput #0, mpegts, to 'http://remo.tv:1567/transmit?name=rbot-e2a3c30c-7bd1-48bf-a992-07be8197f171-video':\r\n  Metadata:\r\n    encoder         : Lavf60.2.100\r\n  Stream #0:0: Video: mpeg1video, yuv420p(tv, progressive), 1280x720, q=2-31, 200 kb/s, 23.98 fps, 90k tbn\r\n    Metadata:\r\n      encoder         : Lavc60.2.100 mpeg1video\r\n    Side data:\r\n      cpb: bitrate max/min/avg: 0/0/200000 buffer size: 0 vbv_delay: N/A\r\n[image2 @ 00000236459dedc0", 'Could not open file : overlay.png\r\n[png @ 00000236459e8240', 'chunk too big\r\nError while decoding stream #1:0: Invalid data found when processing input\r\n[dshow @ 00000236459cf5c0', 'real-time buffer [ManyCam Virtual Webcam', '[video input', 'too full or near too full (92% of size: 4000000 [rtbufsize parameter])! frame dropped!\r\n    Last message repeated 3 times\r\n[image2 @ 00000236459dedc0', 'Could not open file : overlay.png\r\n[dshow @ 00000236459cf5c0', 'real-time buffer [ManyCam Virtual Webcam', '[video input', 'too full or near too full (92% of size: 4000000 [rtbufsize parameter])! frame dropped!\r\n    Last message repeated 3 times\r\n[image2 @ 00000236459dedc0', 'Could not open file : overlay.png\r\n    Last message repeated 2 times\r\n[png @ 00000236459e8240', 'chunk too big\r\nError while decoding stream #1:0: Invalid data found when processing input\r\n[dshow @ 00000236459cf5c0', 'real-time buffer [ManyCam Virtual Webcam', '[video input', 'too full or near too full (92% of size: 4000000 [rtbufsize parameter])! frame dropped!\r\n    Last message repeated 1 times\r\n[image2 @ 00000236459dedc0', 'Could not open file : overlay.png\r\n    Last message repeated 3 times\r\n[dshow @ 00000236459cf5c0', '']
2023-04-08 00:37:17 RemoTV.video.ffmpeg INFO - videoCommandLine : c://ffmpeg//bin//ffmpeg.exe -f dshow -thread_queue_size 5096 -framerate 25 -video_size 1280x720 -r 25 -rtbufsize 4000000 -i video="ManyCam Virtual Webcam" -stream_loop "-1" -f image2 -framerate 5 -i overlay.png -filter_complex 'overlay'  -f mpegts -codec:v mpeg1video -b:v 200k -bf 0 -muxdelay 0.001 -r 20 -nostats -threads 4 -video_size 1280x720 -headers "Authorization: Bearer eyJhbGciOiJIUzI1NiIsInR5cCI6IkpXVCJ9.eyJpZCI6InJib3QtZTJhM2MzMGMtN2JkMS00OGJmLWE5OTItMDdiZTgxOTdmMTcxIiwiaWF0IjoxNjc2NzUxNjIxLCJzdWIiOiIifQ.KYwUpV7DcWS6VIF6X3h43oJ_ZXqd_UmULlKzG4IjBQk" http://remo.tv:1567/transmit?name=rbot-e2a3c30c-7bd1-48bf-a992-07be8197f171-video
2023-04-08 00:37:29 RemoTV.networking ERROR - WebSocket ERROR: 'd'
2023-04-08 00:37:44 RemoTV.networking ERROR - WebSocket ERROR: 'd'
2023-04-08 00:37:59 RemoTV.networking ERROR - WebSocket ERROR: 'd'
2023-04-08 00:38:14 RemoTV.networking ERROR - WebSocket ERROR: 'd'
2023-04-08 00:38:29 RemoTV.networking ERROR - WebSocket ERROR: 'd'
2023-04-08 00:38:44 RemoTV.networking ERROR - WebSocket ERROR: 'd'
2023-04-08 00:39:00 RemoTV.networking ERROR - WebSocket ERROR: 'd'
2023-04-08 00:39:15 RemoTV.networking ERROR - WebSocket ERROR: 'd'
2023-04-08 00:39:30 RemoTV.networking ERROR - WebSocket ERROR: 'd'
2023-04-08 00:39:45 RemoTV.networking ERROR - WebSocket ERROR: 'd'
2023-04-08 00:39:57 RemoTV INFO - chat message received: {'message': '.If video is frozen or blank, press v to restart video, then refresh your page.', 'sender': 'RoboBobo', 'sender_id': 'user-cda849c6-2477-4755-a0d5-766608e0e8a4', 'chat_id': 'chat-f6fe67bf-af64-47b1-a00a-103f0f0525a5', 'server_id': 'serv-67b56601-6a37-47fe-9fa9-6d47a3e1bfa1', 'id': 'mesg-2a515473-f085-461b-9469-c7fa184460d5', 'time_stamp': 1680939597904, 'broadcast': '', 'channel_id': 'rbot-e2a3c30c-7bd1-48bf-a992-07be8197f171', 'display_message': True, 'badges': ['patreon100', 'owner'], 'type': ''}
2023-04-08 00:40:00 RemoTV.networking ERROR - WebSocket ERROR: 'd'
2023-04-08 00:40:15 RemoTV.networking ERROR - WebSocket ERROR: 'd'
2023-04-08 00:40:26 RemoTV INFO - chat message received: {'message': '.Press c to turn on or off your flashlight', 'sender': 'RoboBobo', 'sender_id': 'user-cda849c6-2477-4755-a0d5-766608e0e8a4', 'chat_id': 'chat-f6fe67bf-af64-47b1-a00a-103f0f0525a5', 'server_id': 'serv-67b56601-6a37-47fe-9fa9-6d47a3e1bfa1', 'id': 'mesg-d670f274-f90e-40b8-8f31-eb4edb2eb29c', 'time_stamp': 1680939626240, 'broadcast': '', 'channel_id': 'rbot-e2a3c30c-7bd1-48bf-a992-07be8197f171', 'display_message': True, 'badges': ['patreon100', 'owner'], 'type': ''}
2023-04-08 00:40:30 RemoTV.networking ERROR - WebSocket ERROR: 'd'
2023-04-08 00:40:45 RemoTV.networking ERROR - WebSocket ERROR: 'd'
2023-04-08 00:41:00 RemoTV.networking ERROR - WebSocket ERROR: 'd'
2023-04-08 00:41:16 RemoTV.networking ERROR - WebSocket ERROR: 'd'
2023-04-08 00:41:31 RemoTV.networking ERROR - WebSocket ERROR: 'd'
2023-04-08 00:41:46 RemoTV.networking ERROR - WebSocket ERROR: 'd'
2023-04-08 00:42:01 RemoTV.networking ERROR - WebSocket ERROR: 'd'
2023-04-08 00:42:16 RemoTV.networking ERROR - WebSocket ERROR: 'd'
2023-04-08 00:42:31 RemoTV.networking ERROR - WebSocket ERROR: 'd'
2023-04-08 00:42:46 RemoTV.networking ERROR - WebSocket ERROR: 'd'
2023-04-08 00:43:01 RemoTV.networking ERROR - WebSocket ERROR: 'd'
2023-04-08 00:43:16 RemoTV.networking ERROR - WebSocket ERROR: 'd'
2023-04-08 00:43:32 RemoTV.networking ERROR - WebSocket ERROR: 'd'
2023-04-08 00:43:47 RemoTV.networking ERROR - WebSocket ERROR: 'd'
2023-04-08 00:44:02 RemoTV.networking ERROR - WebSocket ERROR: 'd'
2023-04-08 00:44:17 RemoTV.networking ERROR - WebSocket ERROR: 'd'
2023-04-08 00:44:32 RemoTV.networking ERROR - WebSocket ERROR: 'd'
2023-04-08 00:44:47 RemoTV.networking ERROR - WebSocket ERROR: 'd'
2023-04-08 00:45:02 RemoTV.networking ERROR - WebSocket ERROR: 'd'
2023-04-08 00:45:17 RemoTV.networking ERROR - WebSocket ERROR: 'd'
2023-04-08 00:45:32 RemoTV.networking ERROR - WebSocket ERROR: 'd'
2023-04-08 00:45:47 RemoTV.networking ERROR - WebSocket ERROR: 'd'
2023-04-08 00:46:03 RemoTV.networking ERROR - WebSocket ERROR: 'd'
2023-04-08 00:46:18 RemoTV.networking ERROR - WebSocket ERROR: 'd'
2023-04-08 00:46:33 RemoTV.networking ERROR - WebSocket ERROR: 'd'
2023-04-08 00:46:48 RemoTV.networking ERROR - WebSocket ERROR: 'd'
2023-04-08 00:47:03 RemoTV.networking ERROR - WebSocket ERROR: 'd'
2023-04-08 00:47:18 RemoTV.networking ERROR - WebSocket ERROR: 'd'
2023-04-08 00:47:33 RemoTV.networking ERROR - WebSocket ERROR: 'd'
2023-04-08 00:47:48 RemoTV.networking ERROR - WebSocket ERROR: 'd'
2023-04-08 00:48:03 RemoTV.networking ERROR - WebSocket ERROR: 'd'
2023-04-08 00:48:19 RemoTV.networking ERROR - WebSocket ERROR: 'd'
2023-04-08 00:48:34 RemoTV.networking ERROR - WebSocket ERROR: 'd'
2023-04-08 00:48:49 RemoTV.networking ERROR - WebSocket ERROR: 'd'
2023-04-08 00:49:04 RemoTV.networking ERROR - WebSocket ERROR: 'd'
2023-04-08 00:49:19 RemoTV.networking ERROR - WebSocket ERROR: 'd'
2023-04-08 00:49:34 RemoTV.networking ERROR - WebSocket ERROR: 'd'
2023-04-08 00:49:49 RemoTV.networking ERROR - WebSocket ERROR: 'd'
2023-04-08 00:50:04 RemoTV.networking ERROR - WebSocket ERROR: 'd'
2023-04-08 00:50:19 RemoTV.networking ERROR - WebSocket ERROR: 'd'
2023-04-08 00:50:34 RemoTV.networking ERROR - WebSocket ERROR: 'd'
2023-04-08 00:50:50 RemoTV.networking ERROR - WebSocket ERROR: 'd'
2023-04-08 00:51:05 RemoTV.networking ERROR - WebSocket ERROR: 'd'
2023-04-08 00:51:20 RemoTV.networking ERROR - WebSocket ERROR: 'd'
2023-04-08 00:51:35 RemoTV.networking ERROR - WebSocket ERROR: 'd'
2023-04-08 00:51:50 RemoTV.networking ERROR - WebSocket ERROR: 'd'
2023-04-08 00:52:05 RemoTV.networking ERROR - WebSocket ERROR: 'd'
2023-04-08 00:52:20 RemoTV.networking ERROR - WebSocket ERROR: 'd'
2023-04-08 00:52:35 RemoTV.networking ERROR - WebSocket ERROR: 'd'
2023-04-08 00:52:50 RemoTV.networking ERROR - WebSocket ERROR: 'd'
2023-04-08 00:53:06 RemoTV.networking ERROR - WebSocket ERROR: 'd'
2023-04-08 00:53:21 RemoTV.networking ERROR - WebSocket ERROR: 'd'
2023-04-08 00:53:36 RemoTV.networking ERROR - WebSocket ERROR: 'd'
2023-04-08 00:53:51 RemoTV.networking ERROR - WebSocket ERROR: 'd'
2023-04-08 00:54:06 RemoTV.networking ERROR - WebSocket ERROR: 'd'
2023-04-08 00:54:21 RemoTV.networking ERROR - WebSocket ERROR: 'd'
2023-04-08 00:54:36 RemoTV.networking ERROR - WebSocket ERROR: 'd'
2023-04-08 00:54:51 RemoTV.networking ERROR - WebSocket ERROR: 'd'
2023-04-08 00:55:06 RemoTV.networking ERROR - WebSocket ERROR: 'd'
2023-04-08 00:55:22 RemoTV.networking ERROR - WebSocket ERROR: 'd'
2023-04-08 00:55:37 RemoTV.networking ERROR - WebSocket ERROR: 'd'
2023-04-08 00:55:52 RemoTV.networking ERROR - WebSocket ERROR: 'd'
2023-04-08 00:56:07 RemoTV.networking ERROR - WebSocket ERROR: 'd'
2023-04-08 00:56:22 RemoTV.networking ERROR - WebSocket ERROR: 'd'
2023-04-08 00:56:37 RemoTV.networking ERROR - WebSocket ERROR: 'd'
2023-04-08 00:56:52 RemoTV.networking ERROR - WebSocket ERROR: 'd'
2023-04-08 00:57:07 RemoTV.networking ERROR - WebSocket ERROR: 'd'
2023-04-08 00:57:22 RemoTV.networking ERROR - WebSocket ERROR: 'd'
2023-04-08 00:57:38 RemoTV.networking ERROR - WebSocket ERROR: 'd'
2023-04-08 00:57:53 RemoTV.networking ERROR - WebSocket ERROR: 'd'
2023-04-08 00:58:08 RemoTV.networking ERROR - WebSocket ERROR: 'd'
2023-04-08 00:58:23 RemoTV.networking ERROR - WebSocket ERROR: 'd'
2023-04-08 00:58:38 RemoTV.networking ERROR - WebSocket ERROR: 'd'
2023-04-08 00:58:53 RemoTV.networking ERROR - WebSocket ERROR: 'd'
2023-04-08 00:59:08 RemoTV.networking ERROR - WebSocket ERROR: 'd'
2023-04-08 00:59:23 RemoTV.networking ERROR - WebSocket ERROR: 'd'
2023-04-08 00:59:38 RemoTV.networking ERROR - WebSocket ERROR: 'd'
2023-04-08 00:59:54 RemoTV.networking ERROR - WebSocket ERROR: 'd'
